<?xml version="1.0" encoding="UTF-8" standalone="no"?><svg xmlns="http://www.w3.org/2000/svg" width="91.440002mm" height="128.5mm" viewBox="0 0 91.440002 128.5"><g transform="translate(0 -168.5)"><path d="M-.43 168.283h92.227v128.7H-.429z" fill="#c8c4b7" fill-rule="evenodd"/><rect width="33.645424" height="64.137253" x="1.9783373" y="183.47723" ry="2.3778546" fill="#ccc"/><path fill="#ccc" d="M1.99 232.852h11.34v13.702H1.99z"/><rect width="89.202118" height="89.51944" x="1.1771899" y="182.61217" ry="1.960324" stroke="#000" stroke-width=".29844731"/><rect width="0.51971728" height="0.61421132" x="7.8808036" y="190.25003" ry="0.070870496" fill="#999" stroke="#000" stroke-width=".30000001"/><rect width="2.173363" height="1.5119104" x="7.8808036" y="190.25003" ry="0.070870496" fill="#999" stroke="#000" stroke-width=".30000001"/></g><path fill="#1a1a1a" d="M-.43 118.996h92.66v9.488H-.43z"/><path d="M38.552 125.172h1.487v2.232h-1.487zM40.463 125.172h1.488v2.232h-1.488zM42.375 125.172h1.487v2.232h-1.487zM44.286 125.172h1.488v2.232h-1.488zM46.198 125.172h1.487v2.232h-1.487zM48.11 125.172h1.487v2.232h-1.488zM50.02 125.172h1.488v2.232h-1.487zM51.932 125.172h1.488v2.232h-1.488z" fill="#ffa100"/><g style="line-height:1.25" aria-label="8Mode" font-weight="400" font-size="37.39444351px" font-family="Anton" letter-spacing="0" word-spacing="0" fill="#f8c264" stroke-width=".26458332"><path style="-inkscape-font-specification:'Anton, Normal';font-variant-ligatures:normal;font-variant-caps:normal;font-variant-numeric:normal;font-feature-settings:normal;text-align:start" d="M39.846 124.87q-.656 0-.956-.346-.295-.346-.295-1.022v-.294q0-.35.089-.557.094-.206.322-.31-.216-.082-.311-.272-.095-.191-.095-.49v-.12q0-.577.312-.85.317-.274.934-.274.629 0 .935.279.311.278.311.882 0 .34-.089.552-.089.206-.317.3.256.113.334.355.078.237.078.686 0 .088-.006.113 0 .676-.295 1.022-.294.345-.95.345zm0-2.905q.25 0 .25-.423 0-.165-.06-.278-.056-.114-.19-.114-.133 0-.194.114-.056.113-.056.278 0 .423.25.423zm0 2.028q.262 0 .262-.439l-.006-.222q0-.252-.044-.407-.045-.155-.212-.155-.139 0-.2.14-.061.133-.061.335 0 .087.005.129v.04l-.005.14q0 .439.261.439zM41.432 124.823v-4.43h1.457l.4 2.702.401-2.703h1.469v4.431h-.873v-3.193l-.551 3.193h-.857l-.584-3.193v3.193zM46.75 124.864q-1.218 0-1.218-1.17v-1.517q0-.537.322-.851.329-.32.896-.32t.89.32q.328.314.328.85v1.517q0 1.171-1.218 1.171zm0-.696q.117 0 .172-.077.056-.078.056-.212v-1.847q0-.33-.228-.33t-.228.33v1.847q0 .134.056.212.055.077.172.077zM49.125 124.864q-.356 0-.54-.154-.177-.16-.238-.418-.056-.263-.056-.67l.011-1.703q0-.402.217-.655.223-.258.623-.258.395 0 .59.242v-.882h.973v4.457h-.973v-.402q-.084.221-.228.335-.14.108-.379.108zm.373-.706q.145 0 .19-.13.044-.133.044-.355v-1.579q0-.165-.05-.278-.05-.114-.178-.114-.145 0-.195.109-.045.103-.045.283v1.589q0 .475.234.475zM52.235 124.864q-.629 0-.901-.32-.273-.32-.273-.954v-1.516q0-.521.323-.795.322-.273.9-.273 1.174 0 1.174 1.068v.273q0 .413-.01.67h-1.413v.733q0 .196.044.31.045.108.19.108.11 0 .155-.062.05-.062.056-.14.01-.082.01-.237v-.366h.968v.217q0 .66-.278.975-.272.31-.945.31zm.256-2.295v-.485q0-.407-.217-.407-.245 0-.245.407v.485z"/></g><path fill="#1a1a1a" d="M-.43-.217h92.47v12.7H-.43z"/><g aria-label="SOFTSN MACHINE" style="line-height:1.25;-inkscape-font-specification:'Crystal Radio Kit, Normal';font-variant-ligatures:normal;font-variant-caps:normal;font-variant-numeric:normal;font-feature-settings:normal;text-align:start" font-weight="400" font-size="8.46666622px" font-family="Crystal Radio Kit" letter-spacing="0" word-spacing="0" fill="#8ad56a" stroke-width=".26458332"><path d="M16.462 6.81q-.288 0-.398.128-.11.127-.11.44v1.676q0 1-.448 1.499-.45.49-1.313.49h-1.338V9.292h.703q.288 0 .398-.127.11-.127.11-.44V6.811q0-.89.44-1.321.45-.432 1.313-.432h1.346v1.753zM23.513 8.055q0 .635-.229 1.202-.22.56-.626.991-.407.423-.983.669-.575.245-1.27.245-.702 0-1.278-.245-.576-.246-.982-.669-.407-.432-.635-.99-.22-.568-.22-1.203 0-.643.228-1.21.229-.568.635-.991.415-.424.982-.66.576-.246 1.27-.246.686 0 1.253.245.576.237.983.66.414.424.643.991.229.568.229 1.211zm-2.117.99q0-.202-.085-.38-.076-.187-.211-.314-.127-.135-.314-.211-.177-.085-.38-.085-.212 0-.399.085-.186.076-.321.211-.136.127-.212.314-.076.178-.076.38 0 .212.076.399.076.186.212.321.135.136.321.212.187.076.398.076.204 0 .381-.076.187-.076.314-.212.135-.135.211-.321.085-.187.085-.398zM27.732 9.046h-1.693q-.153 0-.22.084-.06.077-.06.212v1.702h-1.744V5.058h3.742v1.753h-1.82q-.305 0-.305.364 0 .39.305.39h1.795zM32.318 6.81h-1.033q-.178 0-.178.178v4.056h-1.736V6.988q0-.177-.169-.177h-1.033V5.058h4.149z" style="-inkscape-font-specification:'Crystal Radio Kit, Normal';font-variant-ligatures:normal;font-variant-caps:normal;font-variant-numeric:normal;font-feature-settings:normal;text-align:start"/><path d="M35.397 6.81q-.288 0-.398.128-.11.127-.11.44v1.676q0 1-.45 1.499-.448.49-1.312.49H31.79V9.292h.702q.288 0 .398-.127.11-.127.11-.44V6.811q0-.89.44-1.321.45-.432 1.313-.432H36.1v1.753zM41.495 10.146q0 .432-.254.729-.254.287-.711.287-.263 0-.5-.118-.237-.11-.39-.356l-1.27-2.083q-.05-.093-.177-.093-.102 0-.17.06-.059.059-.059.169v2.303h-1.456V5.947q0-.432.246-.711.245-.288.728-.288.27 0 .5.11.236.102.389.356l1.287 2.125q.06.101.178.101.076 0 .144-.05.067-.06.067-.17V5.058h1.448z" style="-inkscape-font-specification:'Crystal Radio Kit, Normal';font-variant-ligatures:normal;font-variant-caps:normal;font-variant-numeric:normal;font-feature-settings:normal;text-align:start" fill="#fbd729"/><path d="M50.494 11.044h-1.592V7.192q0-.398-.373-.398-.372 0-.372.398v3.852h-1.49V7.192q0-.398-.381-.398-.373 0-.373.398v3.852h-1.575V5.058h4.69q.653 0 1.06.364.406.364.406 1zM55.833 11.044H50.88l1.414-5.986h2.168zm-1.71-1.499q0-.321-.22-.533-.212-.212-.533-.212-.314 0-.534.22-.22.212-.22.525 0 .322.22.542.22.212.534.212.321 0 .533-.212.22-.22.22-.542zM61.623 8.055q0 .423-.101.813h-1.897q-.06-.347-.347-.576-.28-.237-.635-.237-.212 0-.398.085-.186.076-.322.211-.135.127-.211.314-.077.178-.077.38 0 .212.077.399.076.186.211.321.136.136.322.212.186.076.398.076.432 0 .711-.313h1.761q-.432.627-1.084.965-.643.339-1.388.339-.627 0-1.177-.237-.542-.237-.948-.644-.398-.406-.635-.948-.229-.542-.229-1.16 0-.635.237-1.177.237-.55.644-.956.415-.407.956-.635.542-.229 1.152-.229.61 0 1.151.237.542.229.949.635.406.406.643.957.237.542.237 1.168zM66.297 11.044h-1.71V9.02q0-.398-.373-.398-.372 0-.372.398v2.024h-1.71V5.058h1.71v2.023q0 .424.372.424.373 0 .373-.424V5.058h1.71zM68.713 11.044H66.96V5.058h1.753zM74.353 10.146q0 .432-.254.729-.254.287-.711.287-.263 0-.5-.118-.237-.11-.39-.356l-1.27-2.083q-.05-.093-.177-.093-.102 0-.17.06-.059.059-.059.169v2.303h-1.456V5.947q0-.432.246-.711.245-.288.728-.288.27 0 .5.11.236.102.389.356l1.287 2.125q.059.101.178.101.076 0 .143-.05.068-.06.068-.17V5.058h1.448zM78.756 11.044h-3.742V5.058h3.742v1.558h-1.804q-.169 0-.262.11-.093.101-.093.254 0 .16.084.28.094.11.271.11h1.804v1.176h-1.77q-.17 0-.28.102-.11.101-.11.28 0 .363.39.363h1.77z" style="-inkscape-font-specification:'Crystal Radio Kit, Normal';font-variant-ligatures:normal;font-variant-caps:normal;font-variant-numeric:normal;font-feature-settings:normal;text-align:start" fill="#c60011"/></g><g aria-label="electronic" style="line-height:1.25" font-weight="400" font-size="4.93888903px" font-family="Crystal Radio Kit" letter-spacing="0" word-spacing="0" fill="#68c8f8" stroke-width=".26458332"><path d="M18.74 2.708q0 .4-.252.632-.247.232-.706.232h-.41q-.212 0-.212.173t.212.173h.909v.568h-.815q-.301 0-.558-.104-.252-.103-.44-.291-.182-.188-.286-.454-.104-.272-.104-.598 0-.247.08-.484.083-.237.26-.42.179-.183.46-.291.282-.114.677-.114.301 0 .523.08.228.073.37.207.149.133.218.31.074.179.074.381zm-.75-.044q0-.173-.114-.287-.114-.113-.287-.113-.079 0-.153.03-.069.029-.123.083-.054.054-.089.129-.03.074-.03.158t.03.158q.035.069.089.123.054.054.123.084.074.03.153.03.173 0 .287-.109.113-.114.113-.286zM19.877 4.486h-.87V.994h.87zM22.84 2.708q0 .4-.252.632-.247.232-.706.232h-.41q-.213 0-.213.173t.213.173h.909v.568h-.815q-.302 0-.558-.104-.252-.103-.44-.291-.183-.188-.286-.454-.104-.272-.104-.598 0-.247.079-.484.084-.237.262-.42.177-.183.459-.291.281-.114.677-.114.3 0 .523.08.227.073.37.207.149.133.218.31.074.179.074.381zm-.75-.044q0-.173-.114-.287-.114-.113-.287-.113-.079 0-.153.03-.07.029-.123.083-.055.054-.09.129-.029.074-.029.158t.03.158q.034.069.089.123.054.054.123.084.074.03.153.03.173 0 .287-.109.113-.114.113-.286zM25.67 2.555q.055.138.08.276.024.139.024.282 0 .202-.044.4h-.894q-.025-.158-.143-.262-.119-.108-.292-.108-.088 0-.168.034-.079.035-.138.094-.06.06-.094.143-.034.08-.034.173 0 .094.034.178.035.079.094.143.06.06.138.094.08.035.168.035.1 0 .178-.035.084-.04.143-.104h.85q-.178.302-.484.48-.301.177-.687.177-.291 0-.543-.108-.252-.11-.44-.297-.182-.192-.29-.45-.105-.261-.105-.557 0-.302.104-.558.104-.257.287-.445.187-.193.44-.301.251-.109.547-.109.223 0 .415.06.198.059.36.167.164.109.287.262.129.153.208.336zM27.753 4.486h-.8q-.39 0-.633-.217-.242-.223-.242-.657V1.29h.875v.345q0 .163.173.163h.696v.88h-.696q-.173 0-.173.172v.598q0 .163.173.163h.627zM30.287 3.177h-.879v-.286q0-.218-.227-.218-.208 0-.208.218v1.595h-.869V1.799h1.314q.444 0 .657.208.212.202.212.582zM33.222 3.143q0 .296-.104.558-.104.257-.292.45-.182.187-.44.296-.251.108-.547.108-.292 0-.544-.108-.251-.11-.44-.297-.182-.192-.29-.45-.104-.261-.104-.557 0-.302.103-.558.104-.257.287-.445.188-.193.44-.301.251-.109.548-.109.296 0 .548.109.257.108.44.301.187.188.29.445.105.256.105.558zm-.944.444q0-.188-.128-.316-.124-.128-.311-.128-.09 0-.168.034-.08.035-.139.094-.059.06-.093.143-.035.08-.035.173 0 .094.035.178.034.079.093.143.06.06.139.094.079.035.168.035.094 0 .173-.035.079-.035.138-.094.06-.064.094-.143.034-.084.034-.178zM35.713 4.486h-.884v-1.65q0-.232-.217-.232t-.217.232v1.65h-.87V1.799h1.334q.41 0 .632.208.222.207.222.582zM36.965 4.486h-.874V1.799h.874zM39.918 2.555q.055.138.08.276.024.139.024.282 0 .202-.044.4h-.894q-.025-.158-.144-.262-.118-.108-.291-.108-.089 0-.168.034-.079.035-.138.094-.06.06-.094.143-.035.08-.035.173 0 .094.035.178.034.079.094.143.059.06.138.094.079.035.168.035.099 0 .178-.035.084-.04.143-.104h.85q-.178.302-.485.48-.3.177-.686.177-.291 0-.543-.108-.252-.11-.44-.297-.183-.192-.291-.45-.104-.261-.104-.557 0-.302.104-.558.103-.257.286-.445.188-.193.44-.301.252-.109.548-.109.222 0 .415.06.197.059.36.167.163.109.287.262.128.153.207.336z" style="-inkscape-font-specification:'Crystal Radio Kit, Normal';font-variant-ligatures:normal;font-variant-caps:normal;font-variant-numeric:normal;font-feature-settings:normal;text-align:start"/></g><path d="M5.1 85.323h29.287c.934 0 1.686.983 1.686 2.203v12.704c0 1.22-.752 2.203-1.686 2.203H5.1c-.934 0-1.686-.982-1.686-2.203V87.526c0-1.22.752-2.203 1.686-2.203z" fill="#fbd729"/><g aria-label="VCO" style="line-height:1.25" font-weight="400" font-size="3.17499995px" font-family="sans-serif" letter-spacing="0" word-spacing="0" stroke-width=".26458332"><path d="M8.092 98.497l-.84 2.309h-.41l-.84-2.309h.329l.724 2.031.724-2.03zM10.225 100.638l-.155.07q-.068.033-.18.068-.094.03-.206.05-.11.022-.243.022-.251 0-.458-.07-.204-.071-.356-.222-.149-.147-.233-.373-.083-.228-.083-.53 0-.284.08-.51.08-.224.233-.379.147-.15.355-.23.21-.078.463-.078.186 0 .37.044.187.045.413.159v.364h-.023q-.19-.16-.378-.233-.188-.072-.402-.072-.175 0-.316.057-.14.056-.25.175-.107.116-.167.295-.059.176-.059.409 0 .243.065.418.067.176.17.286.11.114.253.17.146.055.307.055.222 0 .416-.076.194-.076.363-.228h.021zM12.383 98.763q.141.155.216.38.076.224.076.51 0 .285-.078.511-.076.225-.214.375-.142.157-.338.236-.193.079-.443.079-.243 0-.443-.08-.199-.081-.338-.235-.14-.153-.216-.377-.074-.223-.074-.51 0-.282.074-.505.074-.225.217-.384.137-.152.338-.233.203-.08.442-.08.248 0 .445.082.198.08.336.23zm-.028.89q0-.45-.201-.694-.202-.245-.55-.245-.352 0-.554.245-.2.244-.2.693 0 .455.205.696.204.24.548.24.345 0 .548-.24.204-.241.204-.696z" style="-inkscape-font-specification:'sans-serif, Normal';font-variant-ligatures:normal;font-variant-caps:normal;font-variant-numeric:normal;font-feature-settings:normal;text-align:start"/></g><g aria-label="SLF" style="line-height:1.25" font-weight="400" font-size="3.17499995px" font-family="sans-serif" letter-spacing="0" word-spacing="0" stroke-width=".26458332"><path d="M18.542 100.14q0 .136-.064.267-.062.132-.175.224-.124.099-.29.155-.164.055-.397.055-.25 0-.45-.046-.198-.047-.404-.138v-.385h.022q.175.146.404.225.23.08.431.08.285 0 .444-.108.16-.107.16-.285 0-.153-.077-.226-.074-.073-.228-.113-.116-.031-.252-.052-.135-.02-.287-.05-.307-.066-.456-.222-.147-.159-.147-.411 0-.29.245-.475.245-.186.621-.186.244 0 .447.047.203.046.36.115v.362h-.022q-.132-.111-.347-.184-.214-.075-.44-.075-.246 0-.396.103-.149.102-.149.263 0 .144.075.227.074.082.262.125.099.022.282.053.183.03.31.063.257.069.387.207.13.138.13.386zM20.495 100.8h-1.46V98.49h.307v2.036h1.153zM22.276 98.764H21.11v.651h1.003v.273h-1.003v1.112h-.307V98.49h1.474z" style="-inkscape-font-specification:'sans-serif, Normal';font-variant-ligatures:normal;font-variant-caps:normal;font-variant-numeric:normal;font-feature-settings:normal;text-align:start"/></g><g aria-label="Noise" style="line-height:1.25" font-weight="400" font-size="3.17499995px" font-family="sans-serif" letter-spacing="0" word-spacing="0" stroke-width=".26458332"><path d="M27.284 100.773h-.38l-1.095-2.065v2.065h-.287v-2.308h.476l.999 1.885v-1.885h.287zM29.35 99.908q0 .423-.217.668-.217.245-.581.245-.368 0-.585-.245-.215-.245-.215-.668 0-.423.215-.668.217-.246.585-.246.364 0 .581.246.217.245.217.668zm-.3 0q0-.336-.132-.499-.132-.164-.366-.164-.237 0-.37.164-.13.163-.13.5 0 .325.132.494.132.167.368.167.232 0 .364-.166.133-.167.133-.496zM30.116 98.752h-.329v-.303h.329zm-.019 2.021h-.291v-1.731h.291zM31.914 100.274q0 .237-.197.39-.195.151-.534.151-.193 0-.354-.045-.16-.046-.268-.1v-.328h.015q.138.104.307.166.17.06.324.06.193 0 .301-.061.109-.062.109-.196 0-.102-.06-.155-.058-.052-.226-.09-.062-.014-.162-.032-.1-.019-.182-.04-.228-.061-.324-.177-.094-.118-.094-.289 0-.107.043-.201.045-.095.135-.17.087-.072.22-.114.135-.043.3-.043.156 0 .314.038.16.038.265.092v.312h-.015q-.112-.083-.272-.138-.16-.058-.313-.058-.16 0-.27.062-.11.06-.11.182 0 .107.067.16.065.055.21.09.081.018.18.036.101.019.168.035.203.046.313.16.11.114.11.303zM33.782 99.938h-1.275q0 .16.048.279.048.118.131.193.08.075.191.112.112.037.245.037.177 0 .355-.07.18-.07.256-.139h.015v.318q-.147.062-.3.104-.154.042-.323.042-.43 0-.673-.233-.242-.234-.242-.664 0-.424.231-.674.233-.25.611-.25.35 0 .54.205.19.205.19.582zm-.283-.224q-.002-.229-.117-.355-.113-.125-.345-.125-.234 0-.374.138-.138.138-.156.342z" style="-inkscape-font-specification:'sans-serif, Normal';font-variant-ligatures:normal;font-variant-caps:normal;font-variant-numeric:normal;font-feature-settings:normal;text-align:start"/></g><path d="M57.21 41.222h29.286c.934 0 1.686.983 1.686 2.203V56.13c0 1.22-.752 2.202-1.686 2.202H57.21c-.934 0-1.685-.982-1.685-2.202V43.425c0-1.22.751-2.203 1.685-2.203z" fill="#fbd729"/><g stroke="#141414" stroke-width=".30000001"><rect width="10.154" height="13.235745" x="25.031221" y="39.453499" ry="1.5309273" fill="#c60011"/><rect width="10.154" height="13.235745" x="24.996347" y="66.458534" ry="1.5309273" fill="#c60011"/><rect width="10.154" height="13.235745" x="3.1008434" y="66.458458" ry="1.5309273" fill="#8ad56a"/><rect width="10.154" height="13.235745" x="14.048594" y="66.458458" ry="1.5309273" fill="#8ad56a"/><rect width="10.154" height="13.235745" x="3.1357174" y="39.45343" ry="1.5309273" fill="#8ad56a"/><rect width="10.154" height="13.235745" x="14.083467" y="39.45343" ry="1.5309273" fill="#c60011"/><rect width="10.154" height="13.235745" x="24.996349" y="52.977131" ry="1.5309273" fill="#fbd729"/><rect width="10.154" height="13.235745" x="3.1008439" y="52.977055" ry="1.5309273" fill="#68c8f8"/><rect width="10.154" height="13.235745" x="14.048594" y="52.977055" ry="1.5309273" fill="#fbd729"/></g><g><rect width="32.658001" height="17.110001" x="37.810333" y="85.491631" ry="2.2028122" fill="#68c8f8"/><g aria-label="VCO" style="line-height:1.25" font-weight="400" font-size="3.17499995px" font-family="sans-serif" letter-spacing="0" word-spacing="0" stroke-width=".26458332"><path d="M57.633 87.695l-.84 2.308h-.41l-.84-2.308h.33l.723 2.03.724-2.03zM59.767 89.836q-.086.037-.155.07-.069.032-.18.068-.095.03-.206.05-.11.02-.244.02-.251 0-.457-.069-.205-.071-.357-.222-.149-.147-.232-.373-.084-.228-.084-.529 0-.285.08-.51.081-.225.233-.38.147-.15.355-.23.21-.078.464-.078.186 0 .37.045.186.045.413.158v.364h-.024q-.19-.16-.378-.232-.187-.073-.401-.073-.176 0-.317.057-.14.056-.25.175-.106.117-.167.295-.059.177-.059.41 0 .243.065.418.067.175.171.285.109.115.253.17.145.055.307.055.221 0 .415-.076.194-.076.363-.228h.022zM61.925 87.96q.14.155.215.38.076.224.076.51 0 .285-.077.511-.076.225-.214.375-.143.157-.338.236-.194.08-.444.08-.243 0-.443-.081-.199-.081-.338-.235-.14-.153-.216-.376-.074-.224-.074-.51 0-.282.074-.506.075-.225.217-.384.137-.152.338-.233.204-.08.442-.08.248 0 .445.082.199.08.337.23zm-.028.89q0-.45-.202-.693-.201-.245-.55-.245-.352 0-.554.245-.2.243-.2.693 0 .454.205.696.205.24.549.24.344 0 .547-.24.205-.242.205-.696z" style="-inkscape-font-specification:'sans-serif, Normal';font-variant-ligatures:normal;font-variant-caps:normal;font-variant-numeric:normal;font-feature-settings:normal;text-align:start"/></g><g aria-label="MIXER" style="line-height:1.25" font-weight="400" font-size="3.17499995px" font-family="sans-serif" letter-spacing="0" word-spacing="0" stroke-width=".26458332"><path d="M57.58 97.41h-.307v-1.989l-.641 1.353h-.183l-.638-1.353v1.99h-.286V95.1h.418l.616 1.286.595-1.285h.426zM59.017 97.41h-.911v-.236h.302v-1.837h-.302v-.235h.911v.235h-.302v1.837h.302zM61.304 95.102l-.797 1.14.796 1.168h-.355l-.63-.95-.645.95h-.335l.805-1.153-.786-1.155h.353l.622.938.636-.938zM63.24 97.41h-1.52v-2.308h1.52v.273h-1.213v.632h1.213v.273h-1.213v.857h1.213zM65.639 97.41h-.399l-.772-.918h-.432v.918h-.307v-2.308h.646q.21 0 .35.028.139.026.25.096.126.079.196.2.07.12.07.304 0 .25-.125.418-.125.168-.345.253zm-.718-1.659q0-.099-.036-.175-.034-.077-.114-.13-.067-.045-.159-.062-.091-.019-.215-.019h-.361v.872h.31q.146 0 .254-.025.109-.027.185-.096.07-.066.102-.15.034-.085.034-.215z" style="-inkscape-font-specification:'sans-serif, Normal';font-variant-ligatures:normal;font-variant-caps:normal;font-variant-numeric:normal;font-feature-settings:normal;text-align:start"/></g><g aria-label="1 SHOT" style="line-height:1.25" font-weight="400" font-size="3.17499995px" font-family="sans-serif" letter-spacing="0" word-spacing="0" stroke-width=".26458332"><path d="M56.793 93.66h-1.25v-.235h.481v-1.547h-.48v-.211q.097 0 .209-.016.112-.017.169-.048.071-.039.112-.097.041-.06.048-.162h.24v2.08h.471zM60.238 93.002q0 .135-.064.266-.062.132-.175.224-.124.099-.29.155-.164.055-.397.055-.25 0-.45-.046-.198-.047-.404-.138v-.385h.022q.175.146.405.225.229.08.43.08.286 0 .444-.108.16-.107.16-.285 0-.153-.076-.226-.075-.073-.228-.113-.117-.031-.253-.052-.135-.02-.287-.05-.307-.066-.456-.222-.147-.159-.147-.411 0-.29.245-.475.245-.186.622-.186.243 0 .446.047.203.046.36.114v.363h-.022q-.132-.111-.347-.184-.214-.075-.439-.075-.246 0-.397.103-.149.102-.149.263 0 .144.075.227.074.082.262.125.1.022.282.053.183.03.31.063.257.069.388.207.13.138.13.386zM62.497 93.66h-.307v-1.13h-1.152v1.13h-.307v-2.308h.307v.906h1.152v-.906h.307zM64.84 91.617q.14.155.215.38.076.225.076.51 0 .285-.078.512-.076.225-.214.375-.142.157-.338.236-.194.079-.443.079-.244 0-.444-.08-.198-.082-.338-.235-.139-.154-.215-.377-.074-.223-.074-.51 0-.282.074-.505.074-.225.217-.385.136-.152.338-.232.203-.08.442-.08.248 0 .445.081.198.081.336.231zm-.029.89q0-.45-.201-.693-.202-.245-.55-.245-.353 0-.554.245-.2.244-.2.693 0 .454.205.696.204.24.548.24.345 0 .548-.24.204-.242.204-.696zM67.19 91.625h-.825v2.036h-.307v-2.036h-.825v-.273h1.956z" style="-inkscape-font-specification:'sans-serif, Normal';font-variant-ligatures:normal;font-variant-caps:normal;font-variant-numeric:normal;font-feature-settings:normal;text-align:start"/></g><g aria-label="VCO/ALT" style="line-height:1.25" font-weight="400" font-size="3.17499995px" font-family="sans-serif" letter-spacing="0" word-spacing="0" stroke-width=".26458332"><path d="M57.633 98.809l-.84 2.308h-.41l-.84-2.308h.33l.723 2.03.724-2.03zM59.767 100.95q-.086.037-.155.07-.069.032-.18.068-.095.029-.206.05-.11.02-.244.02-.251 0-.457-.069-.205-.071-.357-.222-.149-.147-.232-.373-.084-.228-.084-.529 0-.285.08-.51.081-.225.233-.38.147-.15.355-.23.21-.078.464-.078.186 0 .37.045.186.045.413.158v.364h-.024q-.19-.16-.378-.232-.187-.073-.401-.073-.176 0-.317.057-.14.056-.25.175-.106.117-.167.295-.059.177-.059.41 0 .242.065.418.067.175.171.285.109.115.253.17.145.055.307.055.221 0 .415-.076.194-.076.363-.228h.022zM61.925 99.074q.14.155.215.38.076.224.076.51 0 .285-.077.511-.076.225-.214.375-.143.157-.338.236-.194.08-.444.08-.243 0-.443-.082-.199-.08-.338-.234-.14-.153-.216-.376-.074-.224-.074-.51 0-.283.074-.506.075-.225.217-.384.137-.152.338-.233.204-.08.442-.08.248 0 .445.082.199.08.337.23zm-.028.89q0-.45-.202-.693-.201-.245-.55-.245-.352 0-.554.245-.2.243-.2.693 0 .454.205.696.205.24.549.24.344 0 .547-.24.205-.242.205-.696zM63.726 98.705l-1.111 2.883h-.269l1.107-2.883zM65.968 101.117h-.327l-.227-.643h-.998l-.226.643h-.312l.84-2.308h.41zm-.648-.907l-.405-1.133-.406 1.133zM67.779 101.117h-1.46v-2.308h.306v2.035h1.154zM69.471 99.081h-.824v2.036h-.307v-2.036h-.825v-.272h1.956z" style="-inkscape-font-specification:'sans-serif, Normal';font-variant-ligatures:normal;font-variant-caps:normal;font-variant-numeric:normal;font-feature-settings:normal;text-align:start"/></g><ellipse cx="54.272419" cy="88.766319" rx="0.51783466" ry="0.56794775" fill="#00000e"/><ellipse cx="54.272419" cy="92.506302" rx="0.51783466" ry="0.56794775" fill="#00000e"/><ellipse cx="54.272419" cy="96.246284" rx="0.51783466" ry="0.56794775" fill="#00000e"/><ellipse cx="54.272419" cy="99.986267" rx="0.51783466" ry="0.56794775" fill="#00000e"/></g><g fill="#8ad56a"><rect width="16.579596" height="17.110001" x="37.69804" y="19.249048" ry="1.9790473"/><rect width="16.579596" height="17.110001" x="71.815338" y="85.491631" ry="1.9790474"/></g><g><rect width="16.579596" height="17.110001" x="37.823311" y="41.155849" ry="1.9790472" fill="#68c8f8"/><g aria-label="V/OCT" style="line-height:1.25" font-weight="400" font-size="2.46944451px" font-family="sans-serif" letter-spacing="0" word-spacing="0" stroke-width=".26458332"><path d="M5.738 63.36l-.654 1.794h-.318l-.653-1.795h.255l.563 1.58.563-1.58zM6.806 63.278l-.864 2.243h-.209l.861-2.243zM8.473 63.565q.11.12.167.296.06.174.06.396 0 .222-.06.398-.06.175-.167.292-.111.122-.263.183-.15.062-.345.062-.19 0-.345-.063-.154-.063-.263-.182-.108-.12-.167-.293-.058-.174-.058-.397 0-.22.058-.393.058-.175.168-.299.107-.118.263-.18.158-.063.344-.063.193 0 .346.064.154.062.262.18zm-.022.692q0-.35-.157-.539-.157-.19-.428-.19-.274 0-.43.19-.156.19-.156.54 0 .353.16.54.158.188.426.188t.426-.187q.159-.188.159-.542zM10.465 65.024l-.12.054q-.054.026-.14.054-.074.022-.161.038-.086.017-.19.017-.195 0-.355-.054-.16-.056-.278-.173-.115-.114-.18-.29-.065-.178-.065-.411 0-.222.062-.397.063-.175.181-.296.115-.117.276-.178.163-.061.36-.061.145 0 .289.034.145.035.32.123v.284h-.017q-.149-.124-.295-.181-.146-.057-.312-.057-.136 0-.246.045-.108.043-.194.136-.083.09-.13.23-.046.137-.046.318 0 .189.05.325.052.136.133.222.085.09.197.133.113.042.238.042.173 0 .324-.06.15-.058.282-.176h.017zM12.085 63.571h-.641v1.583h-.239v-1.583h-.641v-.212h1.521z" style="-inkscape-font-specification:'sans-serif, Normal';font-variant-ligatures:normal;font-variant-caps:normal;font-variant-numeric:normal;font-feature-settings:normal;text-align:start"/></g></g><g><rect width="16.579596" height="17.110001" x="71.815559" y="63.175674" ry="1.9790471" fill="#c60011"/></g><g><path d="M39.256 63.116h29.287c.934 0 1.686.983 1.686 2.203v12.705c0 1.22-.752 2.202-1.686 2.202H39.256c-.934 0-1.686-.982-1.686-2.202V65.319c0-1.22.752-2.203 1.686-2.203z" fill="#8ad56a"/><path d="M57.21 19.233h29.287c.934 0 1.685.983 1.685 2.203V34.14c0 1.22-.751 2.203-1.685 2.203H57.21c-.934 0-1.686-.982-1.686-2.203V21.436c0-1.22.752-2.203 1.686-2.203z" fill="#c60011"/><g aria-label="Length" style="line-height:1.25" font-weight="400" font-size="2.46944451px" font-family="sans-serif" letter-spacing="0" word-spacing="0" stroke-width=".26458332"><path d="M57.658 77.736h.244v1.595h.877v.205h-1.12zM60.135 78.805v.109h-1.02q.014.229.137.35.125.119.345.119.128 0 .247-.032.121-.03.24-.094v.21q-.12.05-.246.077-.125.027-.254.027-.323 0-.512-.188t-.189-.509q0-.332.179-.526.18-.195.483-.195.273 0 .43.176.16.175.16.476zm-.222-.065q-.002-.182-.102-.29-.1-.109-.263-.109-.186 0-.298.105-.11.105-.128.295zM61.622 78.72v.816H61.4v-.808q0-.192-.075-.287-.075-.095-.224-.095-.18 0-.283.114-.104.115-.104.313v.763h-.223v-1.35h.223v.21q.08-.122.187-.183.108-.06.25-.06.232 0 .351.145.12.143.12.423zM62.955 78.845q0-.241-.1-.374-.099-.132-.278-.132-.179 0-.279.132-.099.133-.099.374 0 .24.1.373.1.132.278.132.18 0 .278-.132.1-.133.1-.373zm.222.523q0 .345-.153.513-.153.169-.469.169-.117 0-.22-.018-.104-.017-.202-.054v-.215q.098.053.193.078t.194.025q.218 0 .327-.114.108-.114.108-.344v-.11q-.068.12-.176.179-.107.059-.256.059-.249 0-.4-.19-.153-.189-.153-.501 0-.313.152-.503t.4-.19q.15 0 .257.06.108.06.176.178v-.205h.222zM63.854 77.802v.383h.457v.173h-.457v.733q0 .165.044.212.046.047.185.047h.228v.186h-.228q-.257 0-.355-.095-.097-.097-.097-.35v-.733h-.163v-.173h.163v-.383zM65.726 78.72v.816h-.222v-.808q0-.192-.074-.287-.075-.095-.225-.095-.18 0-.283.114-.104.115-.104.313v.763h-.223V77.66h.223v.735q.08-.122.187-.182.109-.06.25-.06.233 0 .352.145.12.143.12.423z" style="-inkscape-font-specification:'sans-serif, Normal';font-variant-ligatures:normal;font-variant-caps:normal;font-variant-numeric:normal;font-feature-settings:normal;text-align:start"/></g></g><g opacity=".98000004"><rect width="88.821022" height="11.03898" x="1.3074353" y="105.81029" ry="1.5987484" fill="#4d4d4d" stroke="#141414" stroke-width=".60452718"/><path d="M50.66 111.263l1.213-1.605 2.364 3.176 1.192-1.571" fill="none" stroke="#000" stroke-width=".54652214" stroke-linecap="square" stroke-opacity=".9908257"/><path d="M50.24 111.233h5.617" fill="none" stroke="#000" stroke-width=".24289873" stroke-linecap="square" stroke-opacity=".9908257"/><path d="M68.872 111.304v-1.612h2.492v2.983h2.493v-1.868" fill="none" stroke="#000" stroke-width=".54655987" stroke-linecap="square" stroke-opacity=".9908257"/><path d="M68.398 111.13h5.9" fill="none" stroke="#000" stroke-width=".24291553" stroke-linecap="square" stroke-opacity=".9908257"/><g aria-label="OUTPUT" style="line-height:1.25;-inkscape-font-specification:'Arial Rounded MT Bold, Normal';font-variant-ligatures:normal;font-variant-caps:normal;font-variant-numeric:normal;font-feature-settings:normal;text-align:start" font-weight="400" font-size="4.23333311px" font-family="Arial Rounded MT Bold" letter-spacing="0" word-spacing="0" stroke-width=".26458332" fill="#b3b3b3"><path d="M3.981 107.132q.411 0 .705.167.296.166.447.474.152.307.152.721 0 .307-.083.557-.083.251-.249.435-.166.184-.407.281-.242.097-.554.097-.31 0-.555-.099-.245-.1-.41-.283-.163-.182-.248-.438-.083-.256-.083-.553 0-.305.087-.559.088-.254.254-.433.166-.178.404-.272.238-.095.54-.095zm.761 1.359q0-.29-.094-.503-.093-.213-.268-.32-.173-.11-.399-.11-.16 0-.297.06-.135.06-.234.175-.098.116-.155.296-.056.178-.056.402 0 .225.056.407.057.182.16.303.105.12.238.179.135.06.296.06.205 0 .376-.104.173-.102.274-.317.103-.214.103-.528zM5.75 108.727v-1.27q0-.163.072-.244.074-.081.193-.081.124 0 .196.08.074.082.074.244v1.3q0 .222.049.371.05.148.176.23.127.082.354.082.313 0 .443-.166.13-.167.13-.506v-1.31q0-.165.072-.244.072-.081.193-.081.12 0 .195.08.075.08.075.244v1.271q0 .31-.06.517-.06.208-.228.364-.144.134-.335.195-.191.061-.447.061-.305 0-.525-.064-.22-.067-.359-.204-.138-.139-.203-.353-.065-.217-.065-.516zM10.267 107.618h-.584v1.92q0 .166-.074.247-.074.08-.191.08-.119 0-.195-.082-.074-.08-.074-.245v-1.92h-.584q-.137 0-.203-.06-.067-.06-.067-.16 0-.102.069-.162.07-.06.201-.06h1.702q.139 0 .206.062.068.061.068.16 0 .1-.068.16-.069.06-.206.06zM11.884 108.79h-.49v.748q0 .16-.076.244-.076.082-.191.082-.12 0-.195-.08-.074-.084-.074-.242v-2.037q0-.177.081-.252.082-.076.258-.076h.687q.305 0 .469.047.162.045.28.15.118.104.18.255.06.152.06.34 0 .405-.248.614-.249.207-.741.207zm-.13-1.211h-.36v.807h.36q.19 0 .316-.04.128-.039.194-.13.067-.09.067-.235 0-.175-.103-.285-.115-.117-.474-.117zM13.328 108.727v-1.27q0-.163.072-.244.074-.081.193-.081.124 0 .196.08.074.082.074.244v1.3q0 .222.049.371.05.148.177.23.126.082.353.082.314 0 .443-.166.13-.167.13-.506v-1.31q0-.165.072-.244.072-.081.193-.081.12 0 .195.08.076.08.076.244v1.271q0 .31-.062.517-.06.208-.227.364-.144.134-.335.195-.191.061-.447.061-.305 0-.525-.064-.22-.067-.359-.204-.138-.139-.203-.353-.065-.217-.065-.516zM17.845 107.618h-.584v1.92q0 .166-.074.247-.074.08-.19.08-.12 0-.195-.082-.074-.08-.074-.245v-1.92h-.584q-.137 0-.204-.06-.067-.06-.067-.16 0-.102.069-.162.07-.06.202-.06h1.701q.139 0 .206.062.068.061.068.16 0 .1-.068.16-.069.06-.206.06z" style="-inkscape-font-specification:'Arial Rounded MT Bold, Normal';font-variant-ligatures:normal;font-variant-caps:normal;font-variant-numeric:normal;font-feature-settings:normal;text-align:start"/></g><g aria-label="Pre-Release" style="line-height:1.25;-inkscape-font-specification:'Rubik Mono One, Normal';font-variant-ligatures:normal;font-variant-caps:normal;font-variant-numeric:normal;font-feature-settings:normal;text-align:start" font-weight="400" font-size="2.82222223px" font-family="Rubik Mono One" letter-spacing="0" word-spacing="0" fill="#333" stroke-width=".26458332"><path d="M2.709 113.696h1.055q.401 0 .635.194.235.195.235.5t-.198.485q-.197.178-.672.178h-.372v.542q0 .03-.023.053-.022.023-.053.023h-.607q-.031 0-.054-.023-.022-.022-.022-.053v-1.823q0-.031.022-.054.023-.022.054-.022zm.686.524v.31h.358q.065 0 .105-.039.042-.04.042-.11t-.04-.115q-.04-.046-.107-.046zM6.995 115.584q.005.01.005.03 0 .02-.02.04-.016.017-.042.017h-.64q-.085 0-.119-.07l-.248-.56h-.237v.554q0 .03-.023.053-.022.023-.053.023h-.61q-.031 0-.054-.023-.022-.022-.022-.053v-1.823q0-.031.022-.054.023-.023.054-.023h1.098q.386 0 .612.184.226.183.226.5 0 .383-.296.555zm-1.301-1.364v.3h.353q.062 0 .096-.04.033-.042.033-.104 0-.062-.033-.108-.032-.048-.096-.048zM8.06 115.12h1.127q.03 0 .053.023t.023.054v.398q0 .03-.023.053-.022.023-.053.023H7.403q-.031 0-.054-.023-.022-.022-.022-.053v-1.823q0-.031.022-.054.023-.022.054-.022h1.755q.031 0 .054.022.023.023.023.054v.398q0 .03-.023.053t-.054.023H8.061v.178h.942q.031 0 .054.022.022.023.022.054v.367q0 .03-.022.053-.023.023-.054.023h-.942zM10.13 114.458h1.082q.03 0 .053.022.023.023.023.054v.4q0 .031-.023.054-.022.023-.053.023H10.13q-.031 0-.054-.023-.022-.023-.022-.054v-.4q0-.031.022-.054.023-.022.054-.022zM14.188 115.584q.006.01.006.03 0 .02-.02.04-.017.017-.042.017h-.641q-.085 0-.118-.07l-.249-.56h-.237v.554q0 .03-.022.053-.023.023-.054.023h-.61q-.03 0-.053-.023-.023-.022-.023-.053v-1.823q0-.031.023-.054.022-.023.053-.023H13.3q.387 0 .613.184.225.183.225.5 0 .383-.296.555zm-1.3-1.364v.3h.352q.062 0 .096-.04.034-.042.034-.104 0-.062-.034-.108-.031-.048-.096-.048zM15.254 115.12h1.126q.031 0 .054.023.022.023.022.054v.398q0 .03-.022.053-.023.023-.054.023h-1.784q-.03 0-.053-.023-.023-.022-.023-.053v-1.823q0-.031.023-.054.022-.022.053-.022h1.756q.03 0 .053.022.023.023.023.054v.398q0 .03-.023.053-.022.023-.053.023h-1.098v.178h.942q.032 0 .054.022.023.023.023.054v.367q0 .03-.023.053-.022.023-.054.023h-.942zM17.821 115.093h.962q.031 0 .054.022.023.023.023.054v.426q0 .03-.023.053t-.054.023h-1.648q-.03 0-.053-.023-.023-.022-.023-.053v-1.823q0-.031.023-.054.022-.022.053-.022h.61q.03 0 .053.022.023.023.023.054zM20.05 115.12h1.126q.03 0 .053.023t.023.054v.398q0 .03-.023.053-.022.023-.053.023h-1.784q-.031 0-.054-.023-.022-.022-.022-.053v-1.823q0-.031.022-.054.023-.022.054-.022h1.755q.031 0 .054.022.022.023.022.054v.398q0 .03-.022.053-.023.023-.054.023H20.05v.178h.943q.031 0 .054.022.022.023.022.054v.367q0 .03-.022.053-.023.023-.054.023h-.943zM22.125 115.671h-.533q-.025 0-.045-.017-.017-.02-.017-.037 0-.016.003-.025l.615-1.803q.025-.093.127-.093h.785q.101 0 .127.093l.615 1.803q.003.008.003.025t-.02.037q-.017.017-.042.017h-.534q-.09 0-.127-.096l-.07-.197h-.689l-.07.197q-.037.096-.128.096zm.743-.844l-.2-.587-.201.587zM25.212 114.412q.463.054.657.2.198.145.198.435 0 .291-.285.472-.285.18-.756.18-.472 0-.734-.172-.26-.175-.26-.429 0-.062.065-.062h.579q.059 0 .096.037.079.076.273.076.269 0 .269-.082 0-.05-.085-.079-.085-.03-.336-.06-.799-.095-.799-.612 0-.29.257-.468.257-.18.686-.18.432 0 .697.188.265.187.265.395 0 .029-.02.046-.016.016-.047.016h-.607q-.051 0-.088-.033-.067-.063-.203-.063-.189 0-.189.08 0 .042.073.067.074.023.294.048zM27.243 115.12h1.126q.03 0 .053.023t.023.054v.398q0 .03-.023.053-.022.023-.053.023h-1.784q-.03 0-.053-.023-.023-.022-.023-.053v-1.823q0-.031.023-.054.022-.022.053-.022h1.756q.03 0 .053.022.023.023.023.054v.398q0 .03-.023.053-.022.023-.053.023h-1.098v.178h.942q.031 0 .054.022.023.023.023.054v.367q0 .03-.023.053t-.054.023h-.942z"/></g></g><g font-weight="400" letter-spacing="0" word-spacing="0" stroke-width=".26458332"><g aria-label="MIXERS" style="line-height:1.25" font-size="3.88055563px" font-family="Arial Rounded MT Bold" fill="#fbd729"><path d="M5.803 83.868l-.446-1.77v1.918q0 .16-.072.239-.07.08-.187.08-.114 0-.186-.078-.072-.08-.072-.24v-2.199q0-.182.095-.244.095-.065.256-.065h.174q.157 0 .227.029.072.028.106.102.035.074.078.24l.404 1.522.403-1.521q.044-.167.078-.24.034-.075.104-.103.072-.029.23-.029h.174q.16 0 .256.065.094.062.094.244v2.198q0 .16-.072.239-.07.08-.19.08-.111 0-.183-.08t-.072-.239V82.1l-.445 1.77q-.044.172-.072.253-.027.08-.1.146-.075.067-.205.067-.099 0-.167-.044-.068-.042-.106-.108-.038-.066-.06-.146l-.044-.169zM8.124 83.992v-2.189q0-.17.077-.256.078-.085.201-.085.127 0 .205.085.08.084.08.256v2.189q0 .172-.08.257-.078.086-.205.086-.121 0-.2-.086-.078-.087-.078-.257zM9.211 83.747l.622-.907-.523-.808q-.074-.117-.112-.2-.036-.086-.036-.163 0-.08.07-.142.072-.065.175-.065.117 0 .181.07.067.068.182.256l.417.675.445-.675.093-.146q.04-.06.076-.1.036-.04.08-.06.045-.02.104-.02.106 0 .172.065.069.062.069.15 0 .126-.146.344l-.548.819.59.907q.079.12.115.2.036.077.036.147 0 .066-.032.121-.032.055-.091.087-.059.033-.133.033-.08 0-.134-.034-.055-.033-.09-.082l-.126-.191-.49-.77-.518.792q-.061.095-.088.133-.024.038-.06.074t-.086.057q-.049.02-.115.02-.102 0-.17-.062-.067-.062-.067-.182 0-.14.138-.343zM13.486 81.943h-1.268v.683h1.168q.128 0 .191.058.064.057.064.152t-.062.155q-.063.059-.193.059h-1.168v.79h1.312q.132 0 .199.063.068.06.068.163 0 .098-.068.16-.067.061-.2.061h-1.528q-.184 0-.266-.081-.08-.082-.08-.264v-2.088q0-.12.037-.197.036-.077.111-.112.078-.036.198-.036h1.485q.135 0 .199.061.066.059.066.155 0 .099-.066.16-.064.058-.199.058zM15.004 83.1h-.197v.892q0 .176-.078.26-.078.083-.203.083-.134 0-.208-.088-.074-.087-.074-.255v-2.138q0-.182.081-.263.082-.082.264-.082h.915q.19 0 .324.018.135.015.243.064.13.055.23.157.101.103.152.239.053.134.053.286 0 .31-.176.497-.174.185-.53.263.15.08.286.235.136.155.242.331.108.175.167.317.06.14.06.193 0 .055-.035.11-.034.053-.095.083-.06.033-.14.033-.095 0-.16-.046-.064-.043-.111-.112-.046-.068-.125-.2l-.226-.376q-.121-.206-.218-.314-.094-.108-.193-.148-.099-.04-.248-.04zm.322-1.168h-.52v.764h.505q.202 0 .34-.034.14-.036.211-.12.074-.085.074-.233 0-.116-.059-.203-.058-.089-.163-.132-.098-.042-.388-.042zM19.148 83.454q0 .252-.131.452-.129.201-.379.315-.25.114-.593.114-.411 0-.678-.156-.19-.112-.31-.297-.117-.188-.117-.364 0-.102.07-.174.072-.074.182-.074.09 0 .15.057.063.056.106.168.053.133.114.222.062.089.174.148.112.057.294.057.25 0 .405-.116.158-.118.158-.292 0-.138-.086-.223-.083-.088-.218-.133-.132-.046-.356-.097-.3-.07-.502-.163-.2-.094-.32-.255-.118-.163-.118-.404 0-.23.125-.407.125-.179.362-.273.237-.097.557-.097.256 0 .442.065.187.062.31.168.124.104.18.22.057.116.057.225 0 .1-.072.182-.07.08-.176.08-.096 0-.148-.047-.049-.05-.108-.16-.075-.157-.181-.244-.107-.09-.342-.09-.217 0-.352.098-.133.094-.133.229 0 .083.046.144.045.06.125.104t.161.068q.081.025.269.072.235.055.424.121.192.067.324.162.135.094.209.24.076.144.076.355z" style="-inkscape-font-specification:'Arial Rounded MT Bold, Normal';font-variant-ligatures:normal;font-variant-caps:normal;font-variant-numeric:normal;font-feature-settings:normal;text-align:start"/></g><g aria-label="ENVELOPE" style="line-height:1.25" font-size="3.88055563px" font-family="Arial Rounded MT Bold" fill="#68c8f8"><path d="M41.067 81.943h-1.268v.682h1.167q.13 0 .192.059.064.057.064.151 0 .095-.062.156-.063.058-.194.058H39.8v.79h1.311q.133 0 .2.063.067.06.067.163 0 .099-.068.161-.066.06-.199.06h-1.529q-.184 0-.265-.08-.08-.082-.08-.264v-2.088q0-.121.036-.197.036-.078.112-.112.078-.036.197-.036h1.486q.134 0 .199.06.066.06.066.156 0 .099-.066.16-.065.058-.2.058zM42.562 81.799l1.082 1.637v-1.652q0-.161.068-.24.07-.082.187-.082.122 0 .192.081.07.08.07.24v2.185q0 .366-.303.366-.076 0-.137-.023-.06-.02-.113-.068-.053-.047-.099-.11l-.09-.13-1.056-1.619v1.628q0 .16-.074.24-.074.082-.19.082-.119 0-.191-.081-.072-.084-.072-.24v-2.144q0-.136.03-.214.036-.085.12-.138.083-.055.18-.055.075 0 .129.024.054.025.094.067.042.041.084.108l.089.138zM45.188 81.831l.629 1.863.631-1.876q.05-.148.074-.205.024-.059.081-.104.057-.047.156-.047.072 0 .132.036.063.036.097.096.036.059.036.12 0 .041-.011.09-.012.048-.029.095l-.034.095-.673 1.815q-.036.105-.072.2-.036.092-.083.164-.047.07-.127.116-.078.045-.191.045-.114 0-.194-.045-.077-.044-.127-.116-.047-.074-.083-.167-.036-.092-.072-.197l-.661-1.8q-.017-.049-.036-.096-.017-.048-.03-.103-.012-.055-.012-.093 0-.096.078-.176.078-.08.195-.08.144 0 .203.09.06.087.123.28zM49.275 81.943h-1.268v.682h1.168q.128 0 .19.059.065.057.065.151 0 .095-.062.156-.063.058-.193.058h-1.168v.79h1.312q.132 0 .199.063.068.06.068.163 0 .099-.068.161-.067.06-.2.06H47.79q-.183 0-.265-.08-.08-.082-.08-.264v-2.088q0-.121.037-.197.036-.078.111-.112.078-.036.197-.036h1.486q.135 0 .199.06.066.06.066.156 0 .099-.066.16-.064.058-.199.058zM50.588 81.803v2.021h1.14q.137 0 .21.067.073.066.073.167 0 .102-.072.166-.072.063-.21.063H50.37q-.184 0-.265-.082-.08-.081-.08-.263v-2.14q0-.17.076-.255.078-.085.203-.085.127 0 .205.085.08.083.08.256zM53.415 81.462q.432 0 .741.176.31.174.47.498.16.322.16.758 0 .322-.088.586-.087.263-.262.456-.174.194-.428.296-.254.102-.581.102-.326 0-.584-.104-.258-.106-.43-.298-.173-.19-.262-.46-.087-.269-.087-.582 0-.32.091-.587.093-.267.267-.455.175-.187.425-.286.25-.1.568-.1zm.8 1.428q0-.305-.099-.528-.098-.224-.282-.338-.182-.115-.419-.115-.168 0-.313.064-.142.063-.246.184-.102.121-.163.31-.059.188-.059.423 0 .237.06.429.06.19.168.318.11.125.25.187.142.063.31.063.217 0 .397-.108.182-.108.288-.333.108-.226.108-.556zM56.352 83.205h-.515v.786q0 .169-.08.256t-.2.087q-.128 0-.205-.085-.078-.087-.078-.254v-2.141q0-.186.085-.265.085-.08.271-.08h.722q.32 0 .493.05.17.047.293.157.125.11.19.269.064.159.064.358 0 .424-.261.644-.262.218-.779.218zm-.136-1.273h-.38v.848h.38q.199 0 .331-.041.135-.042.205-.137.07-.094.07-.248 0-.184-.108-.3-.121-.122-.498-.122zM59.696 81.943H58.43v.682h1.167q.129 0 .191.059.065.057.065.151 0 .095-.063.156-.062.058-.193.058h-1.167v.79h1.311q.133 0 .199.063.068.06.068.163 0 .099-.068.161-.066.06-.199.06h-1.53q-.183 0-.264-.08-.08-.082-.08-.264v-2.088q0-.121.036-.197.036-.078.112-.112.078-.036.197-.036h1.485q.135 0 .2.06.066.06.066.156 0 .099-.067.16-.064.058-.199.058z" style="-inkscape-font-specification:'Arial Rounded MT Bold, Normal';font-variant-ligatures:normal;font-variant-caps:normal;font-variant-numeric:normal;font-feature-settings:normal;text-align:start"/></g><g aria-label="NOISE" style="line-height:1.25" font-size="3.88055563px" font-family="Arial Rounded MT Bold" fill="#fbd729"><path d="M57.676 37.733l1.082 1.638v-1.653q0-.16.068-.24.07-.082.187-.082.122 0 .192.082.07.08.07.24v2.185q0 .366-.303.366-.076 0-.137-.023-.06-.02-.113-.068-.054-.048-.099-.11l-.09-.13-1.056-1.619v1.628q0 .159-.074.24-.074.082-.19.082-.12 0-.191-.082-.072-.083-.072-.24v-2.143q0-.137.03-.215.036-.085.12-.138.083-.055.18-.055.075 0 .128.025.055.024.095.066.042.042.084.108l.089.138zM61.113 37.396q.432 0 .74.176.311.175.47.499.16.322.16.758 0 .322-.087.585-.088.264-.262.457-.174.193-.428.295-.254.103-.582.103-.326 0-.583-.105-.258-.106-.43-.297-.173-.191-.262-.46-.087-.27-.087-.582 0-.32.09-.588.094-.267.268-.454.174-.188.424-.286.25-.1.569-.1zm.8 1.429q0-.305-.1-.529-.098-.223-.281-.337-.182-.116-.42-.116-.168 0-.312.065-.142.062-.246.184-.102.12-.163.31-.059.188-.059.423 0 .237.059.428.06.191.169.318.11.125.25.188.142.063.31.063.216 0 .396-.108.182-.108.288-.334.108-.225.108-.555zM62.99 39.926v-2.189q0-.17.078-.256.078-.085.201-.085.127 0 .205.085.08.084.08.256v2.189q0 .172-.08.257-.078.086-.205.086-.121 0-.2-.086-.078-.087-.078-.257zM66.291 39.388q0 .252-.13.452-.13.201-.38.315-.25.114-.592.114-.412 0-.679-.156-.19-.111-.309-.297-.117-.188-.117-.364 0-.102.07-.174.072-.074.182-.074.089 0 .15.057.062.057.106.168.053.133.113.222.063.09.175.148.111.057.293.057.25 0 .406-.116.157-.117.157-.292 0-.138-.085-.223-.084-.088-.218-.133-.133-.045-.356-.097-.3-.07-.502-.163-.201-.094-.32-.255-.118-.163-.118-.404 0-.23.125-.407.125-.178.362-.273.237-.097.557-.097.256 0 .441.065.188.062.311.168.123.104.18.22.057.116.057.226 0 .1-.072.181-.07.08-.176.08-.097 0-.148-.047-.05-.05-.108-.16-.076-.157-.182-.244-.106-.089-.341-.089-.218 0-.352.097-.133.094-.133.229 0 .083.045.144.046.06.125.104.08.044.162.068.081.025.269.072.235.055.424.122.191.066.324.16.135.095.208.241.076.144.076.355zM68.603 37.877h-1.268v.683h1.168q.128 0 .19.058.065.057.065.152t-.062.155q-.063.059-.193.059h-1.168v.79h1.312q.132 0 .198.063.069.06.069.163 0 .098-.069.16-.066.061-.198.061h-1.53q-.183 0-.265-.081-.08-.082-.08-.264v-2.088q0-.12.037-.197.036-.077.111-.111.078-.036.197-.036h1.486q.134 0 .199.06.066.059.066.156 0 .098-.066.159-.065.058-.2.058z" style="-inkscape-font-specification:'Arial Rounded MT Bold, Normal';font-variant-ligatures:normal;font-variant-caps:normal;font-variant-numeric:normal;font-feature-settings:normal;text-align:start"/></g><g aria-label="DUTY" style="line-height:1.25" font-size="3.88055563px" font-family="Arial Rounded MT Bold" fill="#c60011"><path d="M73.903 59.455h.733q.286 0 .49.053.205.053.372.199.434.371.434 1.13 0 .25-.043.456-.044.207-.135.373-.091.165-.233.296-.112.1-.245.16-.132.062-.286.086-.151.025-.343.025h-.733q-.153 0-.231-.046-.078-.047-.102-.13-.023-.086-.023-.22V59.8q0-.182.081-.264.082-.081.264-.081zm.218.445v1.886h.426q.14 0 .22-.008.08-.008.165-.038t.147-.085q.283-.239.283-.822 0-.412-.125-.616-.123-.205-.305-.26-.182-.057-.44-.057zM76.43 61.085v-1.336q0-.17.076-.256.078-.085.203-.085.13 0 .206.085.078.085.078.256v1.366q0 .233.051.39.053.156.186.243.133.085.371.085.33 0 .467-.174.136-.177.136-.533V59.75q0-.173.076-.256.076-.085.202-.085.127 0 .205.085.08.083.08.256v1.336q0 .325-.065.543-.062.218-.238.383-.152.14-.353.205-.2.064-.47.064-.32 0-.551-.068-.231-.07-.377-.214-.146-.146-.214-.372-.069-.227-.069-.541zM81.179 59.92h-.614v2.017q0 .175-.078.26-.078.083-.2.083-.126 0-.205-.085-.078-.085-.078-.258V59.92h-.614q-.144 0-.214-.062-.07-.065-.07-.169 0-.108.072-.17.074-.063.212-.063h1.789q.146 0 .216.064.072.065.072.17 0 .103-.072.168-.072.062-.216.062zM82.42 61.937v-.88l-.678-1.052q-.09-.143-.127-.222-.036-.08-.036-.139 0-.096.073-.166.076-.07.186-.07.116 0 .175.066.06.064.18.26l.519.843.525-.843.08-.131q.031-.053.07-.099.039-.047.086-.072.048-.024.116-.024.106 0 .176.07.072.068.072.159 0 .074-.036.148t-.123.204l-.695 1.067v.881q0 .173-.08.258-.08.085-.203.085-.125 0-.202-.083-.078-.085-.078-.26z" style="-inkscape-font-specification:'Arial Rounded MT Bold, Normal';font-variant-ligatures:normal;font-variant-caps:normal;font-variant-numeric:normal;font-feature-settings:normal;text-align:start"/></g><g aria-label="ONE SHOT" style="line-height:1.25" font-size="3.88055563px" font-family="Arial Rounded MT Bold" fill="#8ad56a"><path d="M40.388 59.442q.432 0 .74.176.311.175.47.499.16.322.16.758 0 .322-.088.585-.087.264-.261.457-.174.193-.428.295-.254.103-.582.103-.326 0-.584-.104-.257-.107-.43-.298-.172-.191-.261-.46-.087-.27-.087-.582 0-.32.09-.587.093-.268.268-.455.174-.188.424-.286.25-.1.569-.1zm.8 1.429q0-.305-.1-.529-.098-.223-.282-.337-.182-.116-.418-.116-.169 0-.313.065-.142.062-.246.184-.103.12-.163.31-.06.188-.06.423 0 .237.06.428.06.192.168.318.11.126.25.188.143.063.311.063.216 0 .396-.108.182-.108.288-.334.108-.225.108-.555zM42.976 59.78l1.082 1.637v-1.653q0-.16.068-.24.07-.082.188-.082.12 0 .191.082.07.08.07.24v2.185q0 .366-.303.366-.076 0-.136-.023-.061-.02-.114-.068-.053-.048-.099-.11l-.09-.13-1.056-1.619v1.628q0 .159-.074.24-.074.082-.19.082-.119 0-.19-.082-.073-.083-.073-.24V59.85q0-.137.03-.214.037-.086.12-.139.083-.055.18-.055.076 0 .129.025.055.025.094.066.042.042.084.108l.089.139zM47.021 59.924h-1.267v.682h1.167q.129 0 .191.058.065.057.065.152t-.063.155q-.062.06-.193.06h-1.167v.79h1.31q.134 0 .2.062.068.06.068.163 0 .098-.068.16-.066.061-.2.061h-1.528q-.184 0-.265-.081-.08-.082-.08-.263v-2.089q0-.12.036-.197.036-.077.112-.111.077-.036.197-.036h1.485q.135 0 .2.06.066.059.066.156 0 .098-.067.159-.064.059-.199.059zM50.864 61.434q0 .252-.13.453-.13.2-.38.314-.25.114-.593.114-.411 0-.678-.156-.19-.111-.309-.297-.117-.188-.117-.364 0-.102.07-.174.072-.074.182-.074.089 0 .15.057.062.057.105.168.053.133.114.222.063.09.174.148.112.057.294.057.25 0 .406-.116.157-.117.157-.292 0-.138-.085-.223-.084-.087-.218-.133-.133-.045-.357-.097-.299-.07-.502-.162-.2-.095-.32-.256-.117-.163-.117-.404 0-.23.125-.407.125-.178.362-.273.236-.097.557-.097.255 0 .441.065.188.062.31.168.124.105.18.22.058.116.058.226 0 .1-.072.181-.07.08-.177.08-.096 0-.147-.047-.05-.05-.108-.16-.076-.157-.182-.244-.106-.089-.341-.089-.218 0-.353.097-.132.094-.132.229 0 .083.045.144.046.06.125.104.08.044.161.068.082.025.27.072.234.055.424.122.191.066.324.16.134.095.208.241.076.144.076.355zM51.912 59.783v.796h1.214v-.796q0-.17.076-.255.078-.086.203-.086.127 0 .205.086.08.083.08.255v2.189q0 .172-.08.258-.08.085-.205.085-.127 0-.203-.085-.076-.088-.076-.258v-.934h-1.214v.934q0 .172-.08.258-.08.085-.204.085-.127 0-.203-.085-.076-.088-.076-.258v-2.189q0-.17.074-.255.076-.086.205-.086.127 0 .204.086.08.083.08.255zM55.516 59.442q.432 0 .74.176.311.175.47.499.16.322.16.758 0 .322-.088.585-.087.264-.261.457-.174.193-.428.295-.254.103-.582.103-.326 0-.584-.104-.257-.107-.43-.298-.172-.191-.261-.46-.087-.27-.087-.582 0-.32.09-.587.094-.268.268-.455.174-.188.424-.286.25-.1.569-.1zm.8 1.429q0-.305-.1-.529-.098-.223-.282-.337-.181-.116-.418-.116-.169 0-.313.065-.142.062-.246.184-.103.12-.163.31-.059.188-.059.423 0 .237.059.428.06.192.168.318.11.126.25.188.143.063.311.063.216 0 .396-.108.182-.108.288-.334.108-.225.108-.555zM59.034 59.954h-.614v2.018q0 .174-.077.26-.078.083-.201.083-.125 0-.205-.085-.077-.086-.077-.258v-2.018h-.614q-.144 0-.214-.063-.07-.064-.07-.168 0-.108.071-.17.074-.063.213-.063h1.788q.146 0 .216.064.072.064.072.169 0 .104-.072.168-.072.063-.216.063z" style="-inkscape-font-specification:'Arial Rounded MT Bold, Normal';font-variant-ligatures:normal;font-variant-caps:normal;font-variant-numeric:normal;font-feature-settings:normal;text-align:start"/></g><g aria-label="SLF" style="line-height:1.25" font-size="3.88055563px" font-family="Arial Rounded MT Bold" fill="#68c8f8"><path d="M41.444 39.322q0 .252-.131.453-.129.201-.38.315-.25.114-.592.114-.411 0-.678-.156-.19-.112-.31-.297-.117-.188-.117-.364 0-.102.07-.174.072-.074.182-.074.09 0 .15.056.062.057.106.17.053.132.114.22.062.09.174.149.112.056.294.056.25 0 .405-.115.157-.118.157-.292 0-.138-.085-.224-.083-.087-.218-.132-.132-.046-.356-.097-.3-.07-.502-.163-.2-.094-.32-.256-.118-.162-.118-.403 0-.23.125-.408.125-.178.362-.272.237-.097.557-.097.256 0 .442.064.187.063.31.17.124.103.18.219.057.115.057.225 0 .1-.072.182-.07.08-.176.08-.096 0-.148-.048-.049-.049-.108-.159-.075-.157-.182-.244-.106-.09-.34-.09-.219 0-.353.097-.133.095-.133.23 0 .083.046.144.045.06.125.104t.16.068q.082.025.27.072.235.055.424.121.192.067.324.161.135.095.209.241.076.144.076.354zM42.476 37.672v2.022h1.141q.136 0 .208.066.074.066.074.167 0 .102-.072.167-.072.062-.21.062h-1.359q-.183 0-.265-.081-.08-.082-.08-.264v-2.139q0-.17.076-.256.078-.085.203-.085.127 0 .205.085.08.084.08.256zM45.927 37.812h-1.109v.71h.927q.129 0 .191.06.065.056.065.153t-.065.154q-.064.056-.191.056h-.927v.916q0 .174-.08.26-.077.083-.2.083-.125 0-.205-.086-.077-.085-.077-.257v-2.138q0-.121.036-.197.036-.078.111-.112.078-.036.197-.036h1.327q.134 0 .199.061.066.059.066.155 0 .099-.066.16-.065.058-.2.058z" style="-inkscape-font-specification:'Arial Rounded MT Bold, Normal';font-variant-ligatures:normal;font-variant-caps:normal;font-variant-numeric:normal;font-feature-settings:normal;text-align:start"/></g><g aria-label="VCO" style="line-height:1.25" font-size="3.88055563px" font-family="Arial Rounded MT Bold" fill="#8ad56a"><path d="M39.835 15.897l.629 1.862.631-1.876q.05-.148.074-.204.025-.06.081-.105.057-.047.156-.047.072 0 .132.036.063.036.097.097.036.058.036.12 0 .04-.011.09-.012.047-.029.095l-.034.094-.673 1.816q-.036.104-.072.199-.036.093-.083.165-.047.07-.127.115-.078.046-.191.046-.114 0-.194-.046-.077-.043-.126-.115-.048-.074-.084-.167-.036-.093-.072-.197l-.661-1.8q-.017-.05-.036-.097-.017-.047-.03-.102-.012-.055-.012-.093 0-.097.078-.176.078-.08.195-.08.144 0 .203.09.06.086.123.28zM44.409 17.475q0 .133-.066.288-.065.153-.205.303-.14.148-.358.24-.218.094-.508.094-.22 0-.4-.042-.18-.042-.327-.129-.146-.089-.27-.233-.11-.13-.187-.292-.078-.163-.118-.347-.038-.183-.038-.39 0-.335.097-.6.099-.266.28-.453.182-.19.427-.288.244-.099.52-.099.338 0 .602.135.263.134.403.333.14.197.14.373 0 .097-.068.17-.068.075-.165.075-.108 0-.163-.051-.053-.052-.119-.177-.11-.206-.26-.308-.147-.103-.365-.103-.347 0-.554.264-.204.263-.204.748 0 .324.09.54.092.214.258.32.167.106.39.106.243 0 .41-.119.169-.121.254-.354.036-.11.089-.178.053-.07.17-.07.101 0 .173.07.072.07.072.174zM46.14 15.527q.433 0 .742.176.31.175.47.499.159.322.159.758 0 .322-.087.585-.088.263-.262.457-.174.193-.428.295-.254.103-.582.103-.326 0-.583-.105-.258-.106-.43-.297-.173-.191-.262-.46-.087-.27-.087-.582 0-.32.09-.588.094-.267.268-.454.174-.188.424-.287.25-.1.569-.1zm.8 1.429q0-.305-.098-.529-.099-.223-.282-.337-.182-.116-.42-.116-.168 0-.312.065-.142.062-.246.183-.102.122-.163.311-.059.188-.059.423 0 .237.059.428.06.191.169.318.11.125.25.188.142.062.31.062.216 0 .396-.108.182-.108.288-.333.108-.226.108-.555z" style="-inkscape-font-specification:'Arial Rounded MT Bold, Normal';font-variant-ligatures:normal;font-variant-caps:normal;font-variant-numeric:normal;font-feature-settings:normal;text-align:start"/></g><g aria-label="ATTACK/DECAY" style="line-height:1.25" font-size="3.88055563px" font-family="Arial Rounded MT Bold" fill="#c60011"><path d="M59.023 18.037l-.132-.348h-1.13l-.132.356q-.078.208-.133.282-.055.072-.18.072-.106 0-.188-.078-.081-.077-.081-.176 0-.057.019-.117.019-.06.062-.169l.711-1.804.072-.185q.044-.11.09-.182.05-.072.128-.116.08-.045.195-.045.118 0 .195.045.08.044.127.114.05.07.082.151.034.08.085.215l.726 1.792q.085.205.085.297 0 .097-.082.179-.08.08-.193.08-.066 0-.114-.025-.047-.023-.08-.063-.031-.042-.07-.125l-.062-.15zm-1.114-.77h.83l-.419-1.147zM61.502 16.038h-.614v2.018q0 .175-.078.26-.078.083-.2.083-.126 0-.205-.085-.078-.085-.078-.258v-2.018h-.614q-.144 0-.214-.062-.07-.065-.07-.169 0-.108.072-.17.074-.063.212-.063h1.789q.146 0 .216.064.072.065.072.17 0 .103-.072.168-.072.062-.216.062zM63.93 16.038h-.613v2.018q0 .175-.078.26-.078.083-.2.083-.126 0-.205-.085-.078-.085-.078-.258v-2.018h-.614q-.144 0-.214-.062-.07-.065-.07-.169 0-.108.072-.17.074-.063.212-.063h1.789q.146 0 .216.064.072.065.072.17 0 .103-.072.168-.072.062-.216.062zM66.087 18.037l-.133-.348h-1.129l-.133.356q-.077.208-.132.282-.055.072-.18.072-.106 0-.188-.078-.081-.077-.081-.176 0-.057.019-.117.019-.06.062-.169l.71-1.804.073-.185q.043-.11.09-.182.05-.072.128-.116.08-.045.195-.045.117 0 .195.045.08.044.127.114.05.07.081.151.035.08.086.215l.725 1.792q.086.205.086.297 0 .097-.082.179-.08.08-.193.08-.066 0-.114-.025-.047-.023-.08-.063-.032-.042-.07-.125l-.062-.15zm-1.114-.77h.83l-.419-1.147zM69.37 17.475q0 .132-.066.288-.064.153-.204.303-.14.147-.358.24-.218.093-.508.093-.22 0-.4-.042-.18-.041-.328-.128-.146-.09-.269-.233-.11-.131-.187-.292-.078-.163-.118-.347-.038-.184-.038-.39 0-.336.097-.601.098-.265.28-.453.182-.19.427-.288.244-.098.52-.098.338 0 .601.134.264.135.404.334.14.197.14.373 0 .097-.068.17-.068.074-.165.074-.108 0-.163-.05-.053-.052-.12-.177-.11-.207-.259-.309-.148-.102-.366-.102-.346 0-.553.263-.204.264-.204.749 0 .324.09.54.091.214.258.32.167.106.39.106.243 0 .41-.12.168-.12.254-.354.036-.11.089-.178.053-.07.17-.07.1 0 .173.07.072.07.072.175zM70.447 15.868v.974l1.105-1.152q.08-.084.134-.124.057-.04.15-.04.121 0 .195.073.076.07.076.172 0 .123-.127.245l-.684.648.788 1.129q.083.117.125.206.042.088.042.17 0 .094-.074.162-.072.068-.197.068-.118 0-.191-.05-.074-.05-.126-.134l-.09-.151-.666-1.023-.46.441v.574q0 .175-.08.26-.08.083-.204.083-.072 0-.139-.038-.066-.038-.102-.102-.026-.053-.032-.123-.006-.07-.006-.203v-2.065q0-.17.074-.256.076-.085.205-.085.127 0 .204.085.08.083.08.256zM73.45 15.911l-.53 2.185q-.027.108-.048.17-.019.063-.06.097-.04.036-.118.036-.193 0-.193-.167 0-.043.038-.217l.529-2.185q.041-.175.08-.239.037-.064.147-.064.095 0 .144.045.051.046.051.125 0 .059-.04.214zM74.193 15.574h.733q.286 0 .491.053.205.053.371.199.434.371.434 1.13 0 .25-.043.456-.044.207-.135.373-.09.165-.233.296-.112.1-.244.16-.133.062-.286.086-.152.025-.343.025h-.734q-.153 0-.23-.046-.078-.047-.103-.13-.023-.086-.023-.22v-2.037q0-.182.082-.264.081-.081.263-.081zm.218.445v1.886h.426q.14 0 .22-.008.08-.008.165-.038t.148-.085q.282-.239.282-.822 0-.412-.125-.616-.123-.205-.305-.26-.182-.057-.44-.057zM78.547 16.008H77.28v.682h1.167q.129 0 .191.059.065.057.065.151 0 .095-.063.156-.062.058-.193.058H77.28v.79h1.31q.133 0 .2.063.068.06.068.163 0 .099-.068.161-.067.06-.2.06h-1.528q-.184 0-.266-.08-.08-.082-.08-.264v-2.088q0-.121.037-.197.036-.078.112-.112.077-.036.197-.036h1.485q.135 0 .2.06.066.06.066.156 0 .099-.067.16-.064.058-.199.058zM81.676 17.475q0 .132-.067.288-.064.153-.204.303-.14.147-.358.24-.218.093-.508.093-.22 0-.4-.042-.18-.041-.328-.128-.146-.09-.269-.233-.11-.131-.188-.292-.077-.163-.117-.347-.038-.184-.038-.39 0-.336.097-.601.098-.265.28-.453.182-.19.426-.288.245-.098.522-.098.337 0 .6.134.264.135.404.334.14.197.14.373 0 .097-.068.17-.068.074-.165.074-.108 0-.163-.05-.053-.052-.12-.177-.11-.207-.259-.309-.148-.102-.366-.102-.346 0-.553.263-.205.264-.205.749 0 .324.091.54.091.214.258.32.167.106.39.106.243 0 .41-.12.168-.12.254-.354.036-.11.089-.178.053-.07.17-.07.1 0 .173.07.072.07.072.175zM83.959 18.037l-.133-.348h-1.13l-.132.356q-.077.208-.132.282-.055.072-.18.072-.107 0-.188-.078-.081-.077-.081-.176 0-.057.018-.117.02-.06.063-.169l.71-1.804.073-.185q.043-.11.09-.182.05-.072.127-.116.08-.045.196-.045.117 0 .195.045.08.044.127.114.049.07.081.151.034.08.086.215l.725 1.792q.085.205.085.297 0 .097-.081.179-.08.08-.193.08-.067 0-.114-.025-.047-.023-.08-.063-.032-.042-.07-.125l-.062-.15zm-1.114-.77h.83l-.42-1.147zM85.348 18.056v-.88l-.679-1.052q-.089-.143-.127-.222-.036-.08-.036-.139 0-.096.074-.166.076-.07.186-.07.116 0 .174.066.061.064.18.26l.52.843.524-.843.08-.131q.032-.053.07-.099.04-.047.087-.072.048-.024.116-.024.106 0 .176.07.072.068.072.159 0 .074-.036.148t-.123.204l-.696 1.067v.881q0 .173-.08.258-.079.085-.202.085-.125 0-.203-.083-.077-.085-.077-.26z" style="-inkscape-font-specification:'Arial Rounded MT Bold, Normal';font-variant-ligatures:normal;font-variant-caps:normal;font-variant-numeric:normal;font-feature-settings:normal;text-align:start"/></g><g aria-label="Freq" style="line-height:1.25" font-size="2.82222223px" font-family="sans-serif"><path d="M62.336 55.76h-1.038v.58h.892v.242h-.892v.988h-.273v-2.052h1.31zM63.586 56.313h-.014q-.058-.013-.113-.019-.054-.007-.128-.007-.12 0-.232.054-.111.052-.215.136v1.093h-.259v-1.54h.26v.228q.154-.124.27-.175.12-.052.242-.052.067 0 .098.004l.09.012zM65.12 56.827h-1.133q0 .142.042.248.043.105.117.173.072.066.17.099.1.033.218.033.157 0 .315-.062.16-.063.228-.124h.013v.282q-.13.056-.267.093-.136.037-.287.037-.383 0-.598-.207-.215-.208-.215-.59 0-.377.206-.599.206-.222.543-.222.311 0 .48.182.169.182.169.517zm-.251-.198q-.002-.204-.104-.316-.1-.111-.307-.111-.208 0-.332.122-.123.123-.14.305zM66.762 58.138h-.26v-.741q-.119.103-.237.154-.119.05-.257.05-.274 0-.438-.211-.163-.213-.163-.585 0-.198.057-.35.058-.153.151-.256.091-.1.214-.156.123-.055.26-.055.123 0 .218.028.097.027.196.081l.016-.066h.243zm-.26-.96v-.87q-.107-.048-.19-.068-.082-.019-.178-.019-.225 0-.342.153-.117.152-.117.419 0 .27.093.416.096.145.298.145.113 0 .226-.048.113-.05.21-.127z" style="-inkscape-font-specification:'sans-serif, Normal';font-variant-ligatures:normal;font-variant-caps:normal;font-variant-numeric:normal;font-feature-settings:normal;text-align:start"/></g><g aria-label="Filter" style="line-height:1.25" font-size="2.82222223px" font-family="sans-serif"><path d="M77.81 55.766h-1.038v.579h.891v.242h-.891v.988h-.273v-2.052h1.31zM78.377 55.778h-.292v-.268h.292zm-.016 1.797h-.26v-1.539h.26zM79.138 57.575h-.26v-2.144h.26zM80.453 57.561q-.073.02-.16.032-.086.013-.153.013-.236 0-.359-.127-.122-.127-.122-.407v-.818h-.175v-.218h.175v-.442h.259v.442h.535v.218h-.535v.701q0 .121.005.19.006.068.039.127.03.055.083.081.053.025.162.025.064 0 .133-.018.068-.019.099-.031h.014zM82.055 56.832h-1.134q0 .142.043.249.043.104.117.172.072.066.17.099.099.033.217.033.157 0 .316-.062.16-.063.227-.124h.014v.283q-.131.055-.267.092-.137.037-.287.037-.383 0-.598-.207-.215-.208-.215-.59 0-.377.205-.599.207-.222.543-.222.312 0 .48.182.17.182.17.517zm-.252-.198q-.001-.204-.103-.316-.1-.111-.308-.111t-.332.123q-.122.122-.139.304zM83.408 56.318h-.013q-.058-.013-.113-.019-.054-.007-.128-.007-.12 0-.232.054-.112.052-.215.136v1.093h-.259v-1.539h.259v.227q.154-.124.272-.175.118-.052.24-.052.068 0 .099.004l.09.012z" style="-inkscape-font-specification:'sans-serif, Normal';font-variant-ligatures:normal;font-variant-caps:normal;font-variant-numeric:normal;font-feature-settings:normal;text-align:start"/></g><g aria-label="Width" style="line-height:1.25" font-size="2.82222223px" font-family="sans-serif"><path d="M78.716 77.606l-.534 2.052h-.307l-.431-1.703-.422 1.703h-.3l-.543-2.052h.28l.43 1.706.425-1.706h.277l.429 1.723.428-1.723zM79.374 77.861h-.292v-.268h.292zm-.016 1.797h-.26v-1.54h.26zM81.122 79.658h-.26v-.161q-.111.096-.232.15-.122.054-.264.054-.275 0-.438-.212-.161-.213-.161-.589 0-.195.055-.348.057-.153.152-.26.093-.106.217-.16.126-.056.26-.056.12 0 .215.026.093.025.197.079v-.667h.259zm-.26-.379v-.883q-.104-.047-.187-.065-.083-.018-.18-.018-.218 0-.34.152-.12.151-.12.43 0 .274.093.417.094.142.3.142.11 0 .224-.048.113-.05.21-.127zM82.43 79.644q-.072.02-.16.032-.085.013-.152.013-.236 0-.358-.127-.123-.127-.123-.407v-.818h-.175v-.218h.175v-.442h.26v.442h.534v.218h-.535v.701q0 .121.006.19.005.068.038.127.03.055.083.081.054.025.162.025.064 0 .133-.018.069-.019.099-.031h.014zM84.032 79.658h-.259v-.876q0-.106-.012-.199-.013-.093-.046-.146-.034-.058-.1-.085-.064-.03-.167-.03-.106 0-.222.053t-.222.134v1.15h-.259v-2.145h.259v.776q.121-.1.25-.157.13-.057.267-.057.25 0 .38.15.131.15.131.433z" style="-inkscape-font-specification:'sans-serif, Normal';font-variant-ligatures:normal;font-variant-caps:normal;font-variant-numeric:normal;font-feature-settings:normal;text-align:start"/></g><g aria-label="Freq" style="line-height:1.25" font-size="2.82222223px" font-family="sans-serif"><path d="M44.555 55.707h-1.037v.579h.891v.242h-.891v.988h-.273v-2.052h1.31zM45.805 56.26h-.014q-.058-.014-.113-.02-.053-.007-.128-.007-.12 0-.231.054-.112.052-.215.136v1.093h-.26v-1.539h.26v.227q.154-.124.271-.175.119-.052.241-.052.068 0 .098.004l.091.012zM47.34 56.773h-1.134q0 .142.043.249.043.104.117.172.072.066.17.099.099.033.217.033.157 0 .316-.062.16-.063.227-.124h.014v.283q-.131.055-.267.092-.137.037-.287.037-.383 0-.598-.207-.215-.208-.215-.59 0-.377.205-.599.207-.222.543-.222.312 0 .48.182.17.182.17.517zm-.252-.198q-.001-.204-.103-.316-.1-.111-.308-.111t-.332.122q-.122.123-.139.305zM48.981 58.084h-.259v-.741q-.12.103-.238.154-.118.05-.256.05-.275 0-.439-.211-.162-.212-.162-.585 0-.198.056-.35.058-.153.152-.256.09-.1.214-.156.122-.055.259-.055.124 0 .219.028.096.027.195.081l.017-.066h.243zm-.259-.96v-.87q-.107-.048-.19-.068-.082-.019-.179-.019-.225 0-.342.153-.117.152-.117.419 0 .27.094.416.095.145.298.145.113 0 .226-.048.113-.05.21-.127z" style="-inkscape-font-specification:'sans-serif, Normal';font-variant-ligatures:normal;font-variant-caps:normal;font-variant-numeric:normal;font-feature-settings:normal;text-align:start"/></g><g aria-label="Freq" style="line-height:1.25" font-size="2.82222223px" font-family="sans-serif"><path d="M44.43 33.75h-1.038v.578h.892v.243h-.892v.988h-.273v-2.052h1.311zM45.68 34.302h-.014q-.058-.014-.113-.02-.054-.006-.128-.006-.12 0-.232.054-.111.052-.215.136v1.093h-.259v-1.54h.26v.228q.154-.124.27-.175.12-.053.242-.053.068 0 .098.005.03.002.09.012zM47.215 34.816h-1.134q0 .142.043.248.042.105.117.172.071.066.17.1.098.033.217.033.157 0 .316-.062.16-.064.227-.124h.014v.282q-.131.055-.268.092-.136.038-.286.038-.383 0-.598-.207-.215-.208-.215-.59 0-.378.205-.6.207-.221.543-.221.311 0 .48.182.169.182.169.516zm-.252-.198q-.002-.204-.104-.316-.1-.112-.307-.112-.208 0-.332.123-.123.123-.14.305zM48.856 36.126h-.259v-.74q-.12.102-.238.153-.119.05-.257.05-.274 0-.438-.21-.162-.213-.162-.585 0-.199.056-.35.058-.153.152-.256.09-.101.213-.156.123-.055.26-.055.123 0 .218.027.097.028.196.082l.017-.067h.242zm-.259-.959v-.87q-.107-.049-.19-.068-.083-.02-.18-.02-.224 0-.34.154-.118.151-.118.419 0 .27.094.416.095.144.297.144.113 0 .226-.048.113-.05.211-.127z" style="-inkscape-font-specification:'sans-serif, Normal';font-variant-ligatures:normal;font-variant-caps:normal;font-variant-numeric:normal;font-feature-settings:normal;text-align:start"/></g><g aria-label="Attack" style="line-height:1.25" font-size="2.82222223px" font-family="sans-serif"><path d="M61.64 35.559h-.291l-.202-.572h-.887l-.201.572h-.277l.747-2.052h.363zm-.577-.806l-.36-1.008-.36 1.008zM62.702 35.545q-.073.02-.16.032-.085.012-.153.012-.236 0-.358-.127-.123-.127-.123-.406v-.819h-.175v-.218h.175v-.442h.26v.442h.534v.218h-.535v.702q0 .12.006.19.005.067.038.127.03.055.083.08.054.026.163.026.063 0 .132-.018.069-.02.099-.032h.014zM63.815 35.545q-.073.02-.16.032-.085.012-.153.012-.235 0-.358-.127-.122-.127-.122-.406v-.819h-.175v-.218h.175v-.442h.259v.442h.534v.218h-.534v.702q0 .12.005.19.006.067.039.127.03.055.082.08.054.026.163.026.063 0 .132-.018.07-.02.1-.032h.013zM65.326 35.559h-.258v-.164q-.035.023-.094.066-.058.041-.113.066-.065.032-.149.052-.084.022-.197.022-.208 0-.352-.137-.145-.138-.145-.352 0-.175.074-.282.076-.11.215-.171.14-.062.338-.084.197-.022.423-.033v-.04q0-.088-.032-.146-.03-.058-.088-.091-.055-.032-.132-.043-.077-.011-.161-.011-.102 0-.228.028-.125.026-.259.077h-.014v-.263q.076-.021.22-.046.143-.025.282-.025.163 0 .282.028.122.026.21.09.087.064.132.165.046.1.046.25zm-.258-.38v-.428q-.119.007-.28.02-.16.015-.253.04-.112.033-.18.1-.07.066-.07.183 0 .133.08.2.08.066.244.066.136 0 .25-.052.112-.054.209-.128zM66.965 35.462q-.129.062-.246.097-.116.034-.247.034-.167 0-.306-.048-.139-.05-.238-.149-.1-.1-.156-.25-.055-.152-.055-.355 0-.377.207-.592.208-.215.548-.215.132 0 .26.037.127.037.233.09v.289h-.013q-.119-.093-.246-.142-.125-.05-.245-.05-.22 0-.349.15-.126.147-.126.433 0 .279.124.429.125.149.351.149.079 0 .16-.021.081-.02.146-.054.057-.029.106-.06.05-.034.079-.057h.013zM68.696 35.559h-.341l-.618-.674-.168.16v.514h-.259v-2.144h.26v1.375l.747-.77h.327l-.715.71z" style="-inkscape-font-specification:'sans-serif, Normal';font-variant-ligatures:normal;font-variant-caps:normal;font-variant-numeric:normal;font-feature-settings:normal;text-align:start"/></g><g aria-label="Decay" style="line-height:1.25" font-size="2.82222223px" font-family="sans-serif"><path d="M77.065 34.51q0 .28-.123.507-.121.227-.324.352-.14.087-.314.126-.172.038-.454.038h-.519v-2.052h.513q.3 0 .477.045.178.042.3.118.21.13.327.349.117.217.117.516zm-.285-.005q0-.24-.084-.406-.084-.166-.251-.26-.121-.07-.258-.096-.136-.027-.326-.027h-.257v1.583h.257q.197 0 .343-.029.147-.029.27-.107.153-.098.229-.258.077-.16.077-.4zM78.776 34.79h-1.134q0 .142.043.249.043.104.117.172.072.066.17.1.099.032.217.032.158 0 .316-.062.16-.063.227-.124h.014v.283q-.13.055-.267.092t-.287.037q-.383 0-.598-.207-.215-.208-.215-.59 0-.377.205-.599.207-.222.543-.222.312 0 .48.182.17.182.17.517zm-.252-.198q-.001-.204-.103-.315-.1-.112-.307-.112-.208 0-.332.123-.123.122-.14.304zM80.307 35.437q-.13.062-.246.096-.116.035-.247.035-.167 0-.306-.048-.139-.05-.238-.15-.1-.099-.156-.25-.055-.152-.055-.354 0-.378.207-.593.208-.215.548-.215.132 0 .26.037.127.038.233.091v.288h-.013q-.119-.092-.246-.142-.125-.05-.245-.05-.22 0-.349.15-.126.147-.126.434 0 .278.124.428.125.15.351.15.079 0 .16-.022.081-.02.146-.053.057-.03.106-.06.05-.034.079-.057h.013zM81.837 35.533h-.258v-.164l-.093.066q-.058.042-.113.067-.065.031-.15.052-.083.022-.196.022-.208 0-.353-.138t-.145-.351q0-.175.075-.283.076-.109.215-.17.14-.063.337-.085.197-.022.423-.033v-.04q0-.088-.031-.146-.03-.058-.088-.09-.056-.032-.133-.043-.077-.011-.161-.011-.102 0-.227.027-.126.026-.26.077h-.013v-.263q.076-.02.219-.045.143-.025.282-.025.163 0 .283.027.121.027.21.091.086.064.132.164.045.101.045.25zm-.258-.379v-.428q-.118.007-.28.02-.16.014-.253.04-.112.032-.18.1-.07.066-.07.183 0 .132.08.2.08.066.245.066.136 0 .249-.052.113-.054.21-.129zM83.648 33.994l-.899 2.107h-.277l.287-.642-.613-1.465h.28l.474 1.141.476-1.14z" style="-inkscape-font-specification:'sans-serif, Normal';font-variant-ligatures:normal;font-variant-caps:normal;font-variant-numeric:normal;font-feature-settings:normal;text-align:start"/></g><g aria-label="SLF" style="line-height:1.25" font-size="2.82222223px" font-family="sans-serif"><path d="M82.339 92.348q0 .12-.057.237-.055.117-.156.199-.11.088-.257.137-.146.05-.353.05-.222 0-.4-.041-.176-.042-.36-.123v-.342h.02q.156.13.36.2t.383.07q.253 0 .394-.095.142-.095.142-.253 0-.137-.068-.201-.066-.065-.202-.101-.104-.028-.225-.046-.12-.017-.255-.045-.273-.058-.405-.197-.131-.14-.131-.365 0-.258.218-.422.217-.165.552-.165.217 0 .397.041.18.041.32.102v.322h-.02q-.116-.099-.308-.163-.19-.067-.39-.067-.22 0-.353.091-.132.091-.132.235 0 .128.066.2.066.074.233.112.088.02.25.047.163.028.276.057.23.06.345.183.116.123.116.343zM84.075 92.934h-1.298v-2.052h.273v1.81h1.025zM85.658 91.124h-1.037v.58h.891v.242h-.891v.988h-.273v-2.052h1.31z" style="-inkscape-font-specification:'sans-serif, Normal';font-variant-ligatures:normal;font-variant-caps:normal;font-variant-numeric:normal;font-feature-settings:normal;text-align:start"/></g><g aria-label="EXT" style="line-height:1.25" font-size="2.82222223px" font-family="sans-serif"><path d="M82.355 96.774h-1.352v-2.052h1.352v.243h-1.08v.562h1.08v.243h-1.08v.762h1.08zM84.354 94.722l-.708 1.015.707 1.037h-.316l-.56-.844-.573.844h-.297l.715-1.025-.699-1.027h.315l.552.834.565-.834zM86.187 94.965h-.733v1.81h-.273v-1.81h-.733v-.243h1.739z" style="-inkscape-font-specification:'sans-serif, Normal';font-variant-ligatures:normal;font-variant-caps:normal;font-variant-numeric:normal;font-feature-settings:normal;text-align:start"/></g><g aria-label="OSC" style="line-height:1.25" font-size="3.88055563px" font-family="Arial Rounded MT Bold" fill="#8ad56a"><path d="M74.374 81.59q.432 0 .741.176.31.174.47.498.16.322.16.758 0 .322-.088.586-.087.263-.261.456-.175.194-.429.296-.254.102-.581.102-.326 0-.584-.104-.258-.106-.43-.298-.173-.19-.262-.46-.087-.269-.087-.582 0-.32.091-.587.093-.267.267-.455.175-.187.425-.286.25-.1.568-.1zm.8 1.428q0-.305-.099-.528-.098-.224-.282-.338-.182-.115-.419-.115-.168 0-.312.064-.143.063-.247.184-.102.121-.163.31-.058.188-.058.423 0 .237.058.429.06.191.169.318.11.125.25.187.142.063.31.063.217 0 .397-.108.182-.108.288-.333.108-.226.108-.556zM78.34 83.581q0 .252-.13.453-.13.2-.38.315-.25.113-.593.113-.41 0-.678-.155-.19-.112-.309-.298-.117-.187-.117-.363 0-.103.07-.175.072-.074.182-.074.089 0 .15.057.062.057.105.169.053.132.114.221.063.09.174.148.112.057.294.057.25 0 .406-.115.157-.118.157-.292 0-.139-.085-.224-.084-.087-.218-.132-.133-.046-.357-.097-.299-.07-.502-.163-.2-.095-.32-.256-.117-.163-.117-.403 0-.23.125-.408.125-.178.362-.273.236-.096.557-.096.255 0 .441.064.188.063.31.169.124.104.18.22.058.115.058.225 0 .1-.072.182-.07.08-.176.08-.097 0-.148-.048-.05-.05-.108-.16-.076-.156-.182-.243-.106-.09-.341-.09-.218 0-.353.097-.132.095-.132.23 0 .083.045.143.046.061.125.105.08.043.161.068.082.024.27.072.234.055.424.121.191.066.324.161.134.095.208.24.076.145.076.355zM81.188 83.538q0 .132-.066.288-.065.153-.205.303-.14.148-.358.24-.218.093-.508.093-.22 0-.4-.041-.18-.042-.328-.13-.145-.088-.269-.232-.11-.131-.187-.292-.078-.163-.118-.347-.038-.184-.038-.39 0-.336.097-.6.099-.266.28-.454.182-.19.427-.288.244-.098.52-.098.338 0 .602.134.263.135.403.334.14.197.14.373 0 .097-.068.17-.068.074-.165.074-.108 0-.163-.05-.053-.052-.119-.177-.11-.207-.26-.309-.147-.102-.365-.102-.347 0-.554.263-.204.264-.204.749 0 .324.09.54.092.214.258.32.167.106.39.106.243 0 .41-.12.169-.12.254-.354.036-.11.089-.178.053-.07.17-.07.1 0 .173.07.072.07.072.175z" style="-inkscape-font-specification:'Arial Rounded MT Bold, Normal';font-variant-ligatures:normal;font-variant-caps:normal;font-variant-numeric:normal;font-feature-settings:normal;text-align:start"/></g><g aria-label="V/OCT" style="line-height:1.25" font-size="2.46944451px" font-family="sans-serif"><path d="M5.773 49.835l-.654 1.796h-.318l-.654-1.796h.256l.563 1.58.563-1.58zM6.841 49.755l-.864 2.242h-.209l.861-2.242zM8.508 50.042q.11.12.167.295.06.175.06.397 0 .222-.061.398-.06.174-.166.291-.111.122-.263.184-.151.061-.345.061-.19 0-.345-.062-.154-.063-.263-.183-.108-.119-.167-.293-.058-.173-.058-.396 0-.22.058-.393.057-.175.168-.3.106-.118.263-.18.158-.063.344-.063.193 0 .346.064.154.063.262.18zm-.022.692q0-.35-.157-.54-.157-.19-.428-.19-.274 0-.43.19-.156.19-.156.54 0 .353.16.541.158.187.426.187t.426-.187q.159-.188.159-.541zM10.5 51.5l-.121.055q-.053.025-.14.053-.073.023-.16.039-.086.016-.19.016-.195 0-.355-.054-.16-.055-.278-.172-.115-.115-.18-.29-.066-.178-.066-.412 0-.222.063-.397.063-.175.18-.295.115-.117.277-.179.163-.061.36-.061.145 0 .289.035t.32.123v.283h-.018q-.148-.124-.294-.18-.146-.057-.312-.057-.136 0-.246.044-.109.044-.194.137-.083.09-.13.229-.046.137-.046.318 0 .19.05.326.052.136.133.221.084.09.197.133.113.042.238.042.173 0 .323-.059.151-.059.283-.177h.017zM12.12 50.048h-.641v1.583h-.24v-1.583h-.64v-.213h1.521z" style="-inkscape-font-specification:'sans-serif, Normal';font-variant-ligatures:normal;font-variant-caps:normal;font-variant-numeric:normal;font-feature-settings:normal;text-align:start"/></g><g aria-label="TRIG" style="line-height:1.25" font-size="2.46944451px" font-family="sans-serif"><path d="M5.218 76.913h1.523v.205H6.1v1.596h-.244v-1.596h-.639zM7.83 77.87q.08.026.153.113.075.087.15.239l.247.492h-.262l-.23-.462q-.09-.181-.174-.24-.083-.06-.228-.06h-.265v.762h-.244v-1.8h.55q.309 0 .46.128.153.13.153.39 0 .17-.08.282-.078.112-.23.155zm-.61-.757v.64h.307q.176 0 .265-.081.09-.082.09-.24 0-.158-.09-.238-.089-.08-.265-.08zM8.694 76.913h.244v1.8h-.244zM10.65 78.457v-.484h-.398v-.2h.64v.773q-.142.1-.312.152-.17.05-.363.05-.422 0-.66-.246-.238-.247-.238-.687 0-.441.237-.687.24-.247.661-.247.176 0 .334.043.16.044.293.128v.26q-.135-.115-.287-.173-.152-.058-.32-.058-.33 0-.496.184-.165.185-.165.55 0 .364.165.549.166.184.497.184.129 0 .23-.021.101-.023.182-.07z" style="-inkscape-font-specification:'sans-serif, Normal';font-variant-ligatures:normal;font-variant-caps:normal;font-variant-numeric:normal;font-feature-settings:normal;text-align:start"/></g><g aria-label="CV" style="line-height:1.25" font-size="2.46944451px" font-family="sans-serif"><path d="M18.862 77.09v.257q-.123-.115-.263-.172-.138-.056-.295-.056-.309 0-.473.189-.164.188-.164.545 0 .356.164.545.164.188.473.188.157 0 .295-.057.14-.056.263-.17v.254q-.127.086-.271.13-.142.043-.301.043-.41 0-.644-.25-.235-.25-.235-.683 0-.434.235-.684.235-.25.644-.25.161 0 .303.043.144.042.27.128zM19.705 78.751l-.687-1.8h.254l.57 1.516.572-1.516h.253l-.686 1.8z" style="-inkscape-font-specification:'sans-serif, Normal';font-variant-ligatures:normal;font-variant-caps:normal;font-variant-numeric:normal;font-feature-settings:normal;text-align:start"/></g><g aria-label="CV" style="line-height:1.25" font-size="2.46944451px" font-family="sans-serif"><path d="M18.862 63.526v.257q-.123-.115-.263-.172-.138-.056-.295-.056-.309 0-.473.19-.164.187-.164.544 0 .356.164.545.164.188.473.188.157 0 .295-.056.14-.057.263-.172v.255q-.127.087-.271.13-.142.043-.301.043-.41 0-.644-.25-.235-.25-.235-.683 0-.434.235-.684.235-.25.644-.25.161 0 .303.043.144.042.27.128zM19.705 65.187l-.687-1.8h.254l.57 1.516.572-1.516h.253l-.686 1.8z" style="-inkscape-font-specification:'sans-serif, Normal';font-variant-ligatures:normal;font-variant-caps:normal;font-variant-numeric:normal;font-feature-settings:normal;text-align:start"/></g><g aria-label="CV" style="line-height:1.25" font-size="2.46944451px" font-family="sans-serif"><path d="M18.862 50.029v.257q-.123-.115-.263-.172-.138-.056-.295-.056-.309 0-.473.189-.164.188-.164.545 0 .356.164.545.164.188.473.188.157 0 .295-.057.14-.056.263-.17v.254q-.127.086-.271.13-.142.043-.301.043-.41 0-.644-.25-.235-.25-.235-.683 0-.434.235-.684.235-.25.644-.25.161 0 .303.043.144.042.27.128zM19.705 51.69l-.687-1.8h.254l.57 1.516.572-1.516h.253l-.686 1.8z" style="-inkscape-font-specification:'sans-serif, Normal';font-variant-ligatures:normal;font-variant-caps:normal;font-variant-numeric:normal;font-feature-settings:normal;text-align:start"/></g><g aria-label="CV" style="line-height:1.25" font-size="2.46944451px" font-family="sans-serif"><path d="M29.69 76.99v.256q-.122-.114-.262-.17-.139-.058-.296-.058-.308 0-.472.19-.164.188-.164.545 0 .356.164.545.164.188.472.188.157 0 .296-.057.14-.056.263-.171v.254q-.128.087-.272.13-.142.044-.301.044-.409 0-.644-.25-.235-.25-.235-.683 0-.434.235-.684.235-.25.644-.25.162 0 .304.043.143.042.269.128zM30.534 78.651l-.688-1.8h.255l.57 1.516.572-1.516h.253l-.686 1.8z" style="-inkscape-font-specification:'sans-serif, Normal';font-variant-ligatures:normal;font-variant-caps:normal;font-variant-numeric:normal;font-feature-settings:normal;text-align:start"/></g><g aria-label="CV" style="line-height:1.25" font-size="2.46944451px" font-family="sans-serif"><path d="M29.69 63.426v.256q-.122-.114-.262-.17-.139-.057-.296-.057-.308 0-.472.189-.164.188-.164.545 0 .356.164.545.164.188.472.188.157 0 .296-.057.14-.056.263-.17v.254q-.128.086-.272.13-.142.043-.301.043-.409 0-.644-.25-.235-.25-.235-.683 0-.434.235-.684.235-.25.644-.25.162 0 .304.043.143.042.269.128zM30.534 65.087l-.688-1.8h.255l.57 1.516.572-1.516h.253l-.686 1.8z" style="-inkscape-font-specification:'sans-serif, Normal';font-variant-ligatures:normal;font-variant-caps:normal;font-variant-numeric:normal;font-feature-settings:normal;text-align:start"/></g><g aria-label="CV" style="line-height:1.25" font-size="2.46944451px" font-family="sans-serif"><path d="M29.69 49.928v.257q-.122-.114-.262-.17-.139-.058-.296-.058-.308 0-.472.19-.164.188-.164.545 0 .355.164.545.164.188.472.188.157 0 .296-.057.14-.056.263-.171v.254q-.128.087-.272.13-.142.044-.301.044-.409 0-.644-.25-.235-.25-.235-.683 0-.434.235-.684.235-.25.644-.25.162 0 .304.043.143.042.269.127zM30.534 51.59l-.688-1.8h.255l.57 1.515.572-1.515h.253l-.686 1.8z" style="-inkscape-font-specification:'sans-serif, Normal';font-variant-ligatures:normal;font-variant-caps:normal;font-variant-numeric:normal;font-feature-settings:normal;text-align:start"/></g><g aria-label="Trigger" style="line-height:1.25" font-size="2.46944451px" font-family="sans-serif"><path d="M42.55 77.589h1.524v.205h-.64v1.595h-.244v-1.595h-.64z" style="-inkscape-font-specification:'sans-serif, Normal';font-variant-ligatures:normal;font-variant-caps:normal;font-variant-numeric:normal;font-feature-settings:normal;text-align:start"/><path d="M44.721 78.246q-.037-.022-.082-.031-.043-.011-.096-.011-.188 0-.29.123-.1.122-.1.35v.712h-.223v-1.35h.223v.21q.07-.123.182-.182.112-.06.273-.06.023 0 .05.003.028.002.062.008zM44.956 78.039h.222v1.35h-.222zm0-.526h.222v.281h-.222zM46.53 78.698q0-.24-.1-.373t-.279-.133q-.178 0-.278.133-.1.132-.1.373 0 .24.1.373t.278.133q.18 0 .279-.133.1-.133.1-.373zm.222.524q0 .345-.153.512-.154.169-.47.169-.116 0-.22-.018-.104-.017-.201-.053v-.216q.097.053.192.078.096.026.195.026.218 0 .326-.115.109-.113.109-.344v-.11q-.069.12-.176.18-.107.058-.257.058-.248 0-.4-.19-.152-.188-.152-.5 0-.314.152-.503.152-.19.4-.19.15 0 .257.06.107.058.176.178v-.205h.222zM48.097 78.698q0-.24-.1-.373-.099-.133-.278-.133-.179 0-.279.133-.099.132-.099.373 0 .24.1.373t.278.133q.18 0 .278-.133.1-.133.1-.373zm.222.524q0 .345-.153.512-.153.169-.469.169-.117 0-.22-.018-.104-.017-.202-.053v-.216q.098.053.193.078.095.026.194.026.218 0 .327-.115.108-.113.108-.344v-.11q-.068.12-.176.18-.107.058-.256.058-.249 0-.4-.19-.153-.188-.153-.5 0-.314.152-.503.152-.19.4-.19.15 0 .257.06.108.058.176.178v-.205h.222zM49.931 78.659v.108h-1.02q.015.23.138.35.124.12.345.12.127 0 .247-.032t.239-.094v.21q-.12.05-.245.077-.126.026-.255.026-.323 0-.512-.188-.188-.188-.188-.509 0-.331.178-.525.18-.196.484-.196.272 0 .43.176.16.175.16.477zm-.221-.066q-.003-.182-.103-.29-.099-.109-.263-.109-.186 0-.298.105-.11.105-.127.296zM51.078 78.246q-.037-.022-.082-.031-.043-.011-.096-.011-.188 0-.29.123-.1.122-.1.35v.712h-.223v-1.35h.223v.21q.07-.123.182-.182.112-.06.273-.06.023 0 .05.003.028.002.062.008z" style="-inkscape-font-specification:'sans-serif, Normal';font-variant-ligatures:normal;font-variant-caps:normal;font-variant-numeric:normal;font-feature-settings:normal;text-align:start"/></g></g><g><rect width="31.848345" height="16.699078" x="3.3053658" y="19.387671" ry="1.3197405" fill="#e6e6e6" stroke="#d3d3d3" stroke-width=".2785573"/><rect width="0.89251065" height="1.7316962" x="8.0487595" y="22.354515" ry="0.050932091" fill="#999" stroke="#000" stroke-width=".21677892"/><rect width="0.89251065" height="1.7316962" x="9.71984" y="22.354515" ry="0.050932091" fill="#999" stroke="#000" stroke-width=".21677893"/><rect width="0.89251065" height="1.7316962" x="11.390923" y="22.354515" ry="0.050932091" fill="#999" stroke="#000" stroke-width=".21677893"/><rect width="0.89251065" height="1.7316962" x="13.062003" y="22.354515" ry="0.050932091" fill="#999" stroke="#000" stroke-width=".21677893"/><rect width="0.89251065" height="1.7316962" x="14.733087" y="22.354515" ry="0.050932091" fill="#999" stroke="#000" stroke-width=".21677893"/><rect width="0.89251065" height="1.7316962" x="16.404165" y="22.354515" ry="0.050932091" fill="#999" stroke="#000" stroke-width=".21677893"/><rect width="0.89251065" height="1.7316962" x="18.075249" y="22.354515" ry="0.050932091" fill="#999" stroke="#000" stroke-width=".21677893"/><rect width="0.89251065" height="1.7316962" x="19.74633" y="22.354515" ry="0.050932091" fill="#999" stroke="#000" stroke-width=".21677893"/><rect width="0.89251065" height="1.7316962" x="21.417414" y="22.354515" ry="0.050932091" fill="#999" stroke="#000" stroke-width=".21677893"/><rect width="0.89251065" height="1.7316962" x="23.088491" y="22.354515" ry="0.050932091" fill="#999" stroke="#000" stroke-width=".21677893"/><rect width="0.89251065" height="1.7316962" x="24.759575" y="22.354515" ry="0.050932091" fill="#999" stroke="#000" stroke-width=".21677893"/><rect width="0.89251065" height="1.7316962" x="26.430656" y="22.354515" ry="0.050932091" fill="#999" stroke="#000" stroke-width=".21677893"/><rect width="0.89251065" height="1.7316962" x="28.10174" y="22.354515" ry="0.050932091" fill="#999" stroke="#000" stroke-width=".21677893"/><rect width="0.89251065" height="1.7316962" x="29.77282" y="22.354515" ry="0.050932091" fill="#999" stroke="#000" stroke-width=".21677893"/><rect width="0.89251065" height="1.7316962" x="7.78619" y="31.569756" ry="0.050932091" fill="#999" stroke="#000" stroke-width=".21677893"/><rect width="0.89251065" height="1.7316962" x="9.4572706" y="31.569756" ry="0.050932091" fill="#999" stroke="#000" stroke-width=".21677895"/><rect width="0.89251065" height="1.7316962" x="11.128354" y="31.569756" ry="0.050932091" fill="#999" stroke="#000" stroke-width=".21677895"/><rect width="0.89251065" height="1.7316962" x="12.799435" y="31.569756" ry="0.050932091" fill="#999" stroke="#000" stroke-width=".21677895"/><rect width="0.89251065" height="1.7316962" x="14.470516" y="31.569756" ry="0.050932091" fill="#999" stroke="#000" stroke-width=".21677895"/><rect width="0.89251065" height="1.7316962" x="16.141598" y="31.569756" ry="0.050932091" fill="#999" stroke="#000" stroke-width=".21677895"/><rect width="0.89251065" height="1.7316962" x="17.812679" y="31.569756" ry="0.050932091" fill="#999" stroke="#000" stroke-width=".21677895"/><rect width="0.89251065" height="1.7316962" x="19.483761" y="31.569756" ry="0.050932091" fill="#999" stroke="#000" stroke-width=".21677895"/><rect width="0.89251065" height="1.7316962" x="21.154844" y="31.569756" ry="0.050932091" fill="#999" stroke="#000" stroke-width=".21677895"/><rect width="0.89251065" height="1.7316962" x="22.825924" y="31.569756" ry="0.050932091" fill="#999" stroke="#000" stroke-width=".21677895"/><rect width="0.89251065" height="1.7316962" x="24.497007" y="31.569756" ry="0.050932091" fill="#999" stroke="#000" stroke-width=".21677895"/><rect width="0.89251065" height="1.7316962" x="26.168089" y="31.569756" ry="0.050932091" fill="#999" stroke="#000" stroke-width=".21677895"/><rect width="0.89251065" height="1.7316962" x="27.839172" y="31.569756" ry="0.050932091" fill="#999" stroke="#000" stroke-width=".21677895"/><rect width="0.89251065" height="1.7316962" x="29.510252" y="31.569756" ry="0.050932091" fill="#999" stroke="#000" stroke-width=".21677895"/><rect width="22.867559" height="8.5044641" x="7.7977734" y="23.604221" ry="0" fill="#1a1a1a" stroke="#000" stroke-width=".30000001"/><path d="M7.812 26.513a1.335 1.217 0 0 1 1.168.612 1.335 1.217 0 0 1-.013 1.229 1.335 1.217 0 0 1-1.182.591l.037-1.216z" stroke="#000" stroke-width=".30000001"/><g aria-label="SN76477" style="line-height:1.25" font-weight="400" font-size="2.82222223px" font-family="sans-serif" letter-spacing="0" word-spacing="0" stroke-width=".26458332" fill="#999"><path d="M13.72 26.61v.322q-.178-.09-.337-.134-.158-.044-.306-.044-.257 0-.397.105-.138.104-.138.297 0 .163.091.246.094.082.352.133l.19.04q.351.07.518.25.168.176.168.474 0 .355-.227.539-.226.183-.663.183-.165 0-.352-.04-.185-.039-.384-.116v-.34q.192.113.375.17.184.057.361.057.27 0 .415-.11.147-.112.147-.318 0-.18-.106-.282-.104-.101-.344-.152l-.191-.04q-.352-.073-.509-.23-.157-.157-.157-.437 0-.324.216-.511.218-.187.599-.187.163 0 .333.031.17.032.347.094zM14.35 26.53h.424l1.03 2.044V26.53h.304v2.443h-.423l-1.03-2.044v2.044h-.304zM16.682 26.53h1.493v.14l-.843 2.303h-.328l.793-2.165h-1.115zM19.5 27.62q-.21 0-.335.152-.123.152-.123.417 0 .264.123.418.124.152.336.152.211 0 .334-.152.124-.154.124-.418 0-.265-.124-.417-.123-.152-.334-.152zm.624-1.036v.3q-.118-.058-.24-.09-.119-.03-.237-.03-.311 0-.476.22-.163.222-.187.668.092-.142.23-.217.139-.077.305-.077.35 0 .552.224.204.223.204.607 0 .377-.211.604-.212.228-.563.228-.403 0-.616-.324-.213-.326-.213-.943 0-.58.26-.923.262-.346.702-.346.119 0 .238.025.122.024.252.074zM21.681 26.818l-.793 1.304h.793zm-.082-.288h.395v1.592h.331v.275h-.331v.576h-.313v-.576h-1.048v-.319zM22.767 26.53h1.493v.14l-.843 2.303h-.328l.793-2.165h-1.115zM24.795 26.53h1.493v.14l-.843 2.303h-.328l.793-2.165h-1.115z" style="-inkscape-font-specification:'sans-serif, Normal';font-variant-ligatures:normal;font-variant-caps:normal;font-variant-numeric:normal;font-feature-settings:normal;text-align:start"/></g></g></svg>